<svg version="1.1" id="Layer_1" xmlns="http://www.w3.org/2000/svg" xmlns:xlink="http://www.w3.org/1999/xlink" x="0px" y="0px"
	 width="100%" viewBox="0 0 1268 436" enable-background="new 0 0 1268 436" xml:space="preserve">
<path fill="#FDFDFD" opacity="1.000000" stroke="none" 
	d="
M980.000000,437.000000 
	C653.333374,437.000000 327.166748,437.000000 1.000087,437.000000 
	C1.000058,291.666718 1.000058,146.333450 1.000029,1.000127 
	C423.666534,1.000084 846.333069,1.000084 1268.999756,1.000042 
	C1268.999756,146.333206 1268.999756,291.666412 1268.999878,436.999817 
	C1172.833374,437.000000 1076.666626,437.000000 980.000000,437.000000 
M675.868530,93.916481 
	C675.914673,97.944176 675.960876,101.971863 675.843079,106.924805 
	C675.985291,127.986412 676.127563,149.048019 676.198608,170.862335 
	C676.235229,171.868469 676.271790,172.874603 676.055603,174.801468 
	C676.239197,179.931808 676.422791,185.062149 676.511658,190.906418 
	C676.583496,192.014404 676.655273,193.122375 676.990540,194.936874 
	C678.825562,195.412842 680.650391,196.247162 682.497498,196.300018 
	C688.981140,196.485550 695.473450,196.337234 701.960571,196.437943 
	C709.350220,196.552689 709.878906,196.098068 709.877014,188.627502 
	C709.866943,148.531036 709.863342,108.434555 709.798645,68.338165 
	C709.795776,66.566513 709.217285,64.795792 708.731873,62.300564 
	C708.104492,61.785984 707.481079,60.828693 706.849060,60.822922 
	C696.617615,60.729473 686.385010,60.756817 676.003784,60.756817 
	C676.003784,65.380989 676.003784,69.690460 675.839294,74.790192 
	C675.894104,75.860527 675.948914,76.930862 675.869568,78.881493 
	C675.913696,81.254051 675.957825,83.626602 675.836548,86.862640 
	C675.891602,88.908379 675.946655,90.954117 675.868530,93.916481 
M1079.325684,117.105698 
	C1079.281738,100.675156 1079.292114,84.244034 1079.114624,67.814934 
	C1079.095825,66.072395 1077.976196,64.341736 1077.057739,61.825100 
	C1067.384277,61.568359 1057.710815,61.311623 1047.288940,61.150059 
	C1046.600342,63.768494 1045.320801,66.384918 1045.311890,69.005676 
	C1045.175659,108.982895 1045.204102,148.960678 1045.201660,188.938324 
	C1045.201660,190.436432 1044.857178,192.128830 1045.434570,193.379028 
	C1046.032837,194.674240 1047.539551,196.428055 1048.682861,196.453598 
	C1057.338013,196.646957 1066.001587,196.459045 1074.662476,196.402481 
	C1077.778687,196.382126 1079.305176,194.685669 1079.255249,191.722855 
	C1079.104126,182.752380 1078.834961,173.783905 1078.606323,164.064957 
	C1079.474609,162.521301 1080.131470,160.800003 1081.250854,159.467407 
	C1084.570801,155.515274 1088.091675,151.732819 1091.499268,147.853378 
	C1095.713867,143.055191 1096.619019,143.098083 1100.527344,148.052902 
	C1112.386719,163.087189 1124.262451,178.108490 1136.203125,193.078033 
	C1137.172852,194.293686 1138.668701,195.908981 1139.945923,195.932480 
	C1151.834839,196.151306 1163.729370,196.061981 1176.600830,196.061981 
	C1175.059326,193.594437 1174.177124,191.854050 1172.998535,190.345032 
	C1156.088257,168.693039 1139.230835,146.998291 1122.114990,125.509521 
	C1118.888550,121.458687 1118.781616,118.852760 1122.491333,115.014633 
	C1135.804199,101.240868 1148.766968,87.128723 1161.862915,73.145218 
	C1165.449341,69.315735 1169.038696,65.488953 1173.540039,60.686535 
	C1162.066528,60.686535 1151.817627,60.805580 1141.573975,60.626797 
	C1137.585205,60.557186 1134.634033,61.814243 1131.994385,64.834915 
	C1126.734863,70.853752 1121.221069,76.652901 1115.748291,82.482651 
	C1104.919189,94.018044 1094.078613,105.543083 1083.138550,116.972794 
	C1082.136475,118.019691 1080.384399,118.348694 1079.241089,118.547653 
	C1079.201660,118.374878 1079.162354,118.202103 1079.325684,117.105698 
M467.905426,168.092804 
	C479.604950,168.050797 491.304443,168.008789 503.674744,168.208038 
	C504.501678,168.966614 505.672150,169.568527 506.100830,170.508698 
	C509.331970,177.595581 512.294434,184.807343 515.637085,191.839279 
	C516.442993,193.534714 518.319946,195.881363 519.767273,195.926834 
	C530.701660,196.270325 541.651672,196.114410 553.382996,196.114410 
	C549.389404,187.914993 545.569397,180.400070 542.032471,172.754166 
	C525.645081,137.328674 509.270416,101.896851 493.078857,66.381729 
	C490.949677,61.711514 488.096313,60.006287 483.040070,60.322987 
	C476.407013,60.738449 469.716614,60.647591 463.071960,60.331787 
	C458.290741,60.104546 455.394073,61.672344 453.355652,66.193741 
	C435.675568,105.409447 417.799805,144.536896 400.046448,183.719696 
	C398.292938,187.589905 396.968048,191.654312 395.254944,196.122253 
	C406.161713,196.122253 416.304260,196.289871 426.429291,195.944183 
	C427.973755,195.891449 430.065826,193.749222 430.824615,192.081940 
	C433.503601,186.195206 435.436707,179.962158 438.232086,174.138550 
	C439.403564,171.698074 442.025299,169.953735 444.665924,168.019196 
	C445.121155,167.971558 445.576416,167.923904 446.953827,168.030136 
	C453.628387,167.996964 460.302917,167.963791 467.905426,168.092804 
M893.344055,194.629227 
	C894.245239,195.027115 895.146362,195.425003 896.821167,195.961868 
	C897.864990,195.915054 898.908875,195.868225 900.861572,196.085892 
	C906.221985,196.024994 911.582336,195.964081 917.798157,196.065338 
	C924.651123,196.015366 925.471436,195.231049 925.686462,188.472473 
	C925.723389,187.311111 925.701843,186.147797 925.702759,184.985382 
	C925.726929,154.762344 925.750732,124.539314 925.774109,94.316277 
	C925.775635,92.392868 925.774292,90.469460 925.774292,89.023750 
	C930.009155,88.125328 933.484985,87.387939 937.902588,86.668541 
	C946.229858,86.739685 954.563416,86.642067 962.882019,86.948044 
	C967.544373,87.119545 969.686523,85.728371 969.195923,80.701553 
	C968.793457,76.577370 969.013367,72.380890 969.123291,68.220833 
	C969.317505,60.870441 968.943054,60.423183 961.331421,60.438789 
	C926.188354,60.510849 891.045349,60.591415 855.902283,60.686413 
	C853.973938,60.691624 852.045959,60.854328 850.296753,60.935421 
	C850.296753,69.864922 850.296753,78.244743 850.296753,86.945694 
	C864.163086,86.945694 877.636230,86.945694 891.295105,87.793694 
	C891.458496,117.036346 891.609009,146.279083 891.796997,175.521576 
	C891.832153,180.996628 892.017334,186.470734 892.092957,192.588211 
	C892.480347,193.039230 892.867737,193.490250 893.344055,194.629227 
M866.575439,367.956879 
	C866.679749,367.639069 866.784058,367.321259 867.194641,366.110626 
	C867.148376,360.407196 867.102112,354.703766 867.323486,348.095703 
	C867.323486,329.429474 867.323486,310.763275 867.323486,290.781555 
	C869.622070,293.199768 870.944397,294.435242 872.088745,295.817963 
	C891.399109,319.152191 910.662170,342.525665 930.032471,365.809998 
	C931.438904,367.500671 933.535217,369.656311 935.401367,369.747833 
	C943.983459,370.168793 952.597717,369.933289 961.409424,369.933289 
	C961.506653,368.820801 961.639404,368.019043 961.637695,367.217590 
	C961.551086,325.597687 961.461731,283.977783 961.310913,242.358109 
	C961.306702,241.204376 960.631042,240.053085 960.480042,238.209198 
	C959.632812,237.469238 958.788147,236.091980 957.937927,236.088562 
	C950.033203,236.056900 942.121826,236.139221 934.227661,236.512192 
	C932.831970,236.578125 931.507202,238.142502 929.815613,239.870773 
	C929.815613,264.227112 929.815613,288.583435 929.815613,312.939758 
	C929.289185,313.099243 928.762817,313.258698 928.236389,313.418152 
	C925.168640,310.020477 922.004700,306.704132 919.049194,303.211426 
	C903.669678,285.036377 888.413147,266.756622 872.946655,248.656174 
	C869.320618,244.412598 865.046814,240.722458 860.417480,236.243530 
	C852.152222,236.243530 843.886902,236.243530 835.551941,236.243530 
	C835.394409,236.839279 835.167908,237.296631 835.167603,237.754166 
	C835.139832,280.169250 835.112000,322.584412 835.197021,364.999329 
	C835.199707,366.339386 836.375793,367.677094 837.467712,369.362305 
	C837.836060,369.428986 838.204468,369.495667 839.408569,369.812012 
	C847.254456,369.820557 855.100342,369.829102 863.501221,369.923615 
	C863.686951,369.900208 863.872742,369.876770 864.632629,369.905640 
	C865.110962,369.326019 865.589355,368.746399 866.575439,367.956879 
M987.848328,196.039047 
	C996.639832,195.985092 1005.431274,195.931152 1015.013733,195.985977 
	C1018.094849,196.342316 1017.504822,194.096558 1017.502258,192.379776 
	C1017.440552,151.015320 1017.383972,109.650787 1017.207092,68.286789 
	C1017.198853,66.370285 1016.083069,64.458519 1015.221130,61.852055 
	C1014.142456,61.608936 1013.063721,61.365814 1011.352234,60.606270 
	C1002.280151,60.606270 993.208069,60.606270 983.839294,60.606270 
	C983.839294,62.944027 983.839294,64.762138 983.839294,66.580246 
	C983.839294,88.901878 983.839233,111.223503 983.839355,133.545135 
	C983.839478,153.034912 983.840942,172.524704 983.838379,192.014481 
	C983.838074,194.157501 983.338196,196.684830 987.848328,196.039047 
M754.227600,236.623993 
	C730.607727,236.398849 706.988098,236.130066 683.367798,235.966034 
	C670.559204,235.877090 657.749268,236.008438 644.940308,235.947830 
	C641.509521,235.931595 639.136536,236.828674 638.978027,240.765213 
	C638.733032,246.847031 638.413330,252.925812 637.910095,259.894562 
	C639.152771,260.654480 640.385986,262.055695 641.639648,262.074249 
	C653.113953,262.244385 664.591858,262.174316 676.068665,262.174316 
	C677.974304,262.174316 679.880005,262.174316 682.206543,262.174316 
	C682.206543,298.645111 682.206543,334.325836 682.206543,370.100311 
	C691.613403,370.100311 700.591858,370.227448 709.558899,369.965485 
	C710.930359,369.925415 712.249268,368.087921 713.942200,366.649261 
	C713.910461,366.105896 713.878784,365.562531 713.944336,364.208282 
	C713.792542,333.419830 713.649597,302.631287 713.463745,271.843048 
	C713.453979,270.218903 713.081177,268.596924 713.377869,266.773621 
	C713.172485,266.202484 712.967102,265.631317 713.183533,264.561554 
	C713.423767,263.971222 713.664001,263.380859 714.843872,262.626678 
	C729.143982,262.626678 743.444153,262.626678 757.942200,262.626678 
	C757.942200,254.654236 758.075989,247.541046 757.809875,240.442871 
	C757.765808,239.266495 755.975159,238.155594 754.227600,236.623993 
M777.926453,369.811768 
	C787.026184,369.811768 796.125977,369.811768 805.410217,369.811768 
	C805.529236,369.125336 805.733032,368.498962 805.732849,367.872650 
	C805.723450,326.001556 805.714111,284.130463 805.602661,242.259598 
	C805.598877,240.849091 804.552124,239.441360 803.485107,237.376724 
	C803.084534,236.930710 802.686890,236.098389 802.282959,236.095306 
	C792.713074,236.022385 783.142517,236.038681 773.210815,236.038681 
	C773.210815,237.488815 773.210938,238.461578 773.210693,239.434357 
	C773.199646,281.807648 773.230957,324.181030 773.098450,366.553955 
	C773.087585,370.016541 774.605957,370.020569 777.926453,369.811768 
M506.811157,331.759979 
	C508.788879,333.608826 511.148804,335.187683 512.678467,337.353027 
	C519.486084,346.989960 525.999390,356.834473 532.772156,366.496613 
	C533.806152,367.971741 535.617065,369.860687 537.112732,369.900513 
	C548.009521,370.190735 558.917542,370.056732 571.617737,370.056732 
	C560.932495,354.842377 551.070374,340.800018 541.588196,326.123566 
	C549.574829,321.008514 557.654541,315.993011 562.575012,306.580444 
	C571.187378,288.615234 569.949280,271.230835 558.192200,255.269318 
	C548.540955,242.166580 534.129089,236.950928 518.553894,236.159866 
	C497.781158,235.104843 476.945984,235.251434 456.136566,234.959763 
	C448.553375,234.853485 448.163452,235.325684 448.163300,242.759445 
	C448.162384,283.574829 448.167175,324.390198 448.170013,365.205597 
	C448.170135,366.784637 448.170044,368.363678 448.170044,370.113922 
	C457.237549,370.113922 465.559540,370.150848 473.881012,370.102356 
	C480.666046,370.062836 481.105225,369.598389 481.128479,362.575745 
	C481.161896,352.465454 481.136993,342.354950 481.136993,331.944244 
	C483.692993,331.944244 485.834167,331.944244 488.898132,332.134399 
	C494.620361,331.994873 500.342621,331.855347 506.811157,331.759979 
M394.824371,257.068542 
	C393.881500,259.151093 392.737671,261.167480 392.027222,263.326508 
	C385.651978,282.700287 379.358826,302.101074 373.020905,321.487183 
	C372.490265,323.110321 371.809692,324.684479 370.774292,327.390991 
	C362.886475,303.779510 355.488464,281.450958 347.941162,259.173004 
	C346.085663,253.695816 343.743286,248.383575 341.358002,242.306320 
	C340.863586,236.258026 337.317474,235.128311 331.920563,235.869370 
	C327.547974,236.469803 323.040466,236.013474 318.619751,236.364822 
	C315.823822,236.587021 313.077362,237.431732 309.721863,238.455963 
	C299.657837,267.202820 289.593811,295.949677 279.119171,325.869415 
	C271.699341,304.375000 264.733887,284.196838 257.692932,263.274963 
	C255.005661,255.310944 252.465973,247.291565 249.515808,239.426147 
	C248.868088,237.699188 246.808731,235.340912 245.317825,235.280273 
	C235.969879,234.900055 226.598846,235.088043 215.646210,235.088043 
	C217.229614,239.111069 218.180847,241.527908 219.064087,244.730255 
	C220.031219,248.078094 220.906921,251.455536 221.979446,254.769257 
	C234.046875,292.053101 246.161621,329.321686 258.201385,366.614471 
	C259.152405,369.560120 261.029175,370.291443 263.853455,370.245941 
	C271.513306,370.122528 279.176544,370.224030 286.837616,370.150299 
	C294.466614,370.076874 295.049438,369.566528 297.432800,362.323517 
	C305.633820,337.400360 313.852356,312.482971 322.088867,287.571533 
	C322.555847,286.159088 323.242676,284.819336 324.286224,282.367065 
	C325.239929,285.094513 325.751190,286.486847 326.215485,287.894684 
	C334.798035,313.917511 343.435791,339.922546 351.874786,365.991882 
	C352.909210,369.187347 354.182434,370.431519 357.696198,370.298340 
	C366.179138,369.976776 374.693085,369.892395 383.171387,370.254883 
	C387.946014,370.459015 389.792511,368.500092 391.172638,364.189850 
	C400.388672,335.407257 409.932037,306.729645 419.220673,277.970001 
	C422.322388,268.366333 424.989471,258.622284 428.547302,248.693192 
	C429.967773,244.539520 431.388245,240.385849 432.944092,235.836411 
	C423.730377,235.836411 415.108856,235.957977 406.493591,235.778870 
	C402.849640,235.703125 400.901428,237.364334 399.980621,240.595291 
	C398.437744,246.009125 396.974396,251.445587 394.824371,257.068542 
M813.853271,60.616909 
	C802.418335,60.250603 790.921326,59.004200 779.568665,59.804783 
	C770.951233,60.412479 761.951599,62.381474 754.121460,65.942307 
	C738.472534,73.058807 731.447205,86.750275 731.805176,103.501587 
	C732.142273,119.273163 742.305664,128.396042 756.108337,133.813171 
	C761.653320,135.989441 767.535156,137.313248 773.275330,138.985306 
	C783.640198,142.004562 794.059692,144.847244 804.363342,148.061768 
	C809.054993,149.525497 811.975830,152.971085 811.731445,158.148315 
	C811.501587,163.016693 809.348328,166.766983 804.299500,168.225052 
	C789.476135,172.505951 774.804504,172.907059 760.403687,166.492065 
	C753.786621,163.544418 747.172729,160.589844 740.408813,157.572098 
	C738.576172,160.941940 736.972595,163.836517 735.418335,166.757309 
	C727.091675,182.405304 727.245178,183.035919 743.844299,190.092117 
	C763.091248,198.273880 783.113098,199.293762 803.623718,196.551300 
	C813.984436,195.165955 823.198853,191.583221 831.351929,185.113831 
	C851.136719,169.414795 851.499207,133.515717 822.628113,122.956718 
	C819.667969,121.874107 816.693665,120.787857 813.653564,119.973297 
	C800.813599,116.532936 787.941467,113.212433 775.091003,109.810860 
	C769.716370,108.388161 765.745239,105.637970 765.162231,99.481392 
	C764.541809,92.929520 768.643555,88.111099 777.354004,86.171997 
	C793.113525,82.663643 808.128662,85.380867 822.361328,92.551178 
	C826.421082,94.596481 828.892395,94.072411 830.665527,89.943581 
	C832.565979,85.518288 834.482483,81.099091 836.460815,76.708237 
	C838.416687,72.367271 837.334473,69.285133 832.820190,67.584328 
	C826.776855,65.307404 820.716736,63.075092 813.853271,60.616909 
M330.173523,110.500343 
	C330.173523,138.905182 330.173523,167.310028 330.173523,195.707855 
	C341.304352,195.707855 351.726746,195.707855 362.607635,195.707855 
	C362.607635,193.669708 362.608643,191.868820 362.607513,190.067947 
	C362.587280,158.261337 362.560577,126.454735 362.551117,94.648125 
	C362.548950,87.332306 363.176788,86.785469 370.555481,86.837448 
	C378.215271,86.891411 385.875702,86.861725 393.535828,86.866447 
	C397.619110,86.868958 401.702362,86.866890 405.678467,86.866890 
	C405.678467,77.830437 405.678467,69.567932 405.678467,61.193382 
	C366.022095,61.193382 326.633484,61.193382 287.075745,61.193382 
	C287.075745,69.651978 287.075745,77.887436 287.075745,86.522552 
	C289.253540,86.652962 291.213623,86.868034 293.174072,86.871239 
	C302.998779,86.887299 312.823792,86.880989 322.648285,86.816841 
	C329.705841,86.770760 330.270050,87.277367 330.266479,94.513382 
	C330.263977,99.509102 330.208618,104.504791 330.173523,110.500343 
M1047.608521,371.891693 
	C1067.693604,374.120178 1086.650391,370.304779 1104.706665,361.399353 
	C1110.643433,358.471344 1113.980591,354.249207 1113.745850,347.301636 
	C1113.397339,336.988373 1113.386353,326.663147 1113.276367,316.342560 
	C1113.221802,311.227936 1113.266968,306.112274 1113.266968,300.984436 
	C1103.065796,300.984436 1093.342651,300.984436 1083.381714,300.984436 
	C1083.381714,312.498535 1083.286011,323.653656 1083.450684,334.804993 
	C1083.490479,337.507599 1082.774536,338.867706 1080.190674,339.970459 
	C1070.774292,343.989441 1061.096924,345.905426 1050.964844,343.949005 
	C1034.280884,340.727509 1022.298218,331.692902 1017.490173,314.917511 
	C1012.658997,298.061462 1016.758423,283.121338 1029.439941,271.139923 
	C1041.954468,259.316223 1068.566406,257.782593 1083.293091,267.400665 
	C1087.158691,269.925293 1090.841797,272.729126 1094.710938,275.477356 
	C1101.601196,269.149628 1108.297729,262.999725 1115.979980,255.944611 
	C1113.585693,254.011398 1111.443237,252.207825 1109.225342,250.502197 
	C1082.877319,230.239349 1054.263794,227.837341 1024.061890,240.202484 
	C975.393921,260.127991 966.866089,326.610260 1011.070862,358.685547 
	C1021.705505,366.402100 1033.872314,370.053650 1047.608521,371.891693 
M169.328339,173.849640 
	C165.193253,181.804733 165.231354,181.941406 173.365494,186.211380 
	C192.334442,196.169037 212.646729,199.546570 233.783875,197.787979 
	C246.351334,196.742340 258.391968,193.341141 268.517303,185.326538 
	C280.056458,176.192795 284.802063,163.845764 282.802948,149.536270 
	C280.896820,135.892166 272.051239,127.364876 259.258209,123.058640 
	C252.184738,120.677673 244.842712,119.106590 237.709335,116.888733 
	C227.421280,113.690056 217.187881,110.308968 206.983093,106.852432 
	C203.067337,105.526093 201.644135,102.041283 202.268997,98.436859 
	C202.780823,95.484352 203.962814,91.535690 206.169708,90.178886 
	C216.600800,83.765846 228.246735,82.934555 239.894135,85.790382 
	C248.544067,87.911255 256.904694,91.211990 265.680267,94.080711 
	C267.967407,88.663612 270.297180,83.005219 272.741058,77.396568 
	C275.172913,71.815575 274.791138,70.933815 269.590851,67.970665 
	C254.007385,59.091057 237.217056,57.798473 219.791977,59.331276 
	C208.101608,60.359627 196.571823,61.476486 186.590240,68.505196 
	C173.963837,77.396309 167.661697,89.716515 169.265594,104.921066 
	C170.850830,119.948792 179.903198,129.579117 194.607986,133.636765 
	C202.293518,135.757507 210.002945,137.798294 217.649338,140.052444 
	C225.609375,142.399033 233.549881,144.830124 241.414230,147.475967 
	C245.872223,148.975769 248.263870,152.239105 248.929642,157.096054 
	C249.623383,162.157043 246.907303,164.896286 243.152405,167.043747 
	C241.017242,168.264847 238.665085,169.476547 236.281952,169.833725 
	C221.259644,172.085114 206.465683,172.235672 192.592148,164.512100 
	C187.722412,161.801041 182.590668,159.560608 177.391739,157.013748 
	C174.698975,162.714096 172.221115,167.959549 169.328339,173.849640 
M570.496704,87.330589 
	C574.916138,87.330589 579.335632,87.330589 584.059509,87.330589 
	C584.059509,89.781380 584.058594,91.593628 584.059570,93.405876 
	C584.076050,124.718063 584.087708,156.030243 584.122559,187.342422 
	C584.124573,189.166931 583.932739,191.132721 584.539246,192.770523 
	C585.017395,194.061600 586.564819,195.847595 587.674683,195.874542 
	C597.606567,196.115540 607.546692,196.015076 617.914062,196.015076 
	C617.914062,159.688232 617.914062,123.787842 617.914062,87.470642 
	C620.616699,87.333977 622.907776,87.125740 625.199524,87.118156 
	C635.359192,87.084534 645.520935,86.995308 655.677979,87.162506 
	C660.303284,87.238647 661.940186,85.164825 661.713623,80.782578 
	C661.507690,76.798187 661.470520,72.792068 661.618591,68.805176 
	C661.895569,61.344593 661.044983,60.323551 653.677307,60.334377 
	C618.367920,60.386272 583.058472,60.445595 547.749146,60.539028 
	C545.320984,60.545452 542.893616,60.851833 540.415222,61.022205 
	C540.415222,69.940468 540.415222,78.379539 540.415222,87.330399 
	C550.243408,87.330399 559.870789,87.330399 570.496704,87.330589 
M609.492188,369.974487 
	C613.617065,369.974487 617.741943,369.974487 622.270569,369.974487 
	C622.270569,359.577026 622.269714,349.629639 622.270691,339.682281 
	C622.273926,307.211182 622.261536,274.740082 622.295776,242.269028 
	C622.302368,235.951813 622.386597,235.976593 616.093506,235.979492 
	C609.766724,235.982407 603.436890,236.040802 597.113892,235.870758 
	C590.174133,235.684113 589.999146,235.733185 589.999207,242.505005 
	C589.999695,283.468536 590.005371,324.432068 590.023499,365.395599 
	C590.024170,366.834595 590.173462,368.273529 590.268005,369.974487 
	C596.557007,369.974487 602.525513,369.974487 609.492188,369.974487 
z"/>
<path fill="#172739" opacity="1.000000" stroke="none" 
	d="
M257.768433,264.018677 
	C264.733887,284.196838 271.699341,304.375000 279.119171,325.869415 
	C289.593811,295.949677 299.657837,267.202820 310.298523,238.222122 
	C311.252899,237.993637 311.630615,237.999008 312.287659,238.315674 
	C320.046082,238.751114 327.525208,238.875244 335.312286,239.133148 
	C337.621765,240.509781 339.623260,241.752640 341.624756,242.995514 
	C343.743286,248.383575 346.085663,253.695816 347.941162,259.173004 
	C355.488464,281.450958 362.886475,303.779510 370.774292,327.390991 
	C371.809692,324.684479 372.490265,323.110321 373.020905,321.487183 
	C379.358826,302.101074 385.651978,282.700287 392.027222,263.326508 
	C392.737671,261.167480 393.881500,259.151093 395.584595,256.987732 
	C400.358154,257.701904 401.103729,254.730423 401.824371,251.975876 
	C402.904968,247.845459 402.482361,241.891876 405.094757,239.969788 
	C408.068848,237.781570 413.674927,239.070831 418.138702,239.028717 
	C426.243134,238.952271 426.229950,239.009308 427.061279,247.184875 
	C427.122955,247.791351 427.581329,248.357498 427.855255,248.942413 
	C424.989471,258.622284 422.322388,268.366333 419.220673,277.970001 
	C409.932037,306.729645 400.388672,335.407257 391.172638,364.189850 
	C389.792511,368.500092 387.946014,370.459015 383.171387,370.254883 
	C374.693085,369.892395 366.179138,369.976776 357.696198,370.298340 
	C354.182434,370.431519 352.909210,369.187347 351.874786,365.991882 
	C343.435791,339.922546 334.798035,313.917511 326.215485,287.894684 
	C325.751190,286.486847 325.239929,285.094513 324.286224,282.367065 
	C323.242676,284.819336 322.555847,286.159088 322.088867,287.571533 
	C313.852356,312.482971 305.633820,337.400360 297.432800,362.323517 
	C295.049438,369.566528 294.466614,370.076874 286.837616,370.150299 
	C279.176544,370.224030 271.513306,370.122528 263.853455,370.245941 
	C261.029175,370.291443 259.152405,369.560120 258.201385,366.614471 
	C246.161621,329.321686 234.046875,292.053101 221.979446,254.769257 
	C220.906921,251.455536 220.031219,248.078094 219.363251,244.097977 
	C220.630417,239.507278 223.267853,238.554825 227.052811,238.938889 
	C230.178253,239.256012 233.361496,239.003632 236.519119,239.003693 
	C245.084686,239.003830 246.363464,239.946457 249.234085,248.337418 
	C251.192612,254.062317 253.162613,259.783295 255.206741,265.736908 
	C256.414368,264.926910 257.091400,264.472809 257.768433,264.018677 
z"/>
<path fill="#172739" opacity="1.000000" stroke="none" 
	d="
M862.946228,369.837646 
	C855.100342,369.829102 847.254456,369.820557 839.091187,369.238403 
	C838.520874,364.552612 838.101074,360.442566 838.047119,356.327728 
	C837.901550,345.234802 837.911865,334.139832 837.909668,322.574585 
	C837.963684,295.753448 837.968445,269.403320 837.992615,242.643707 
	C838.222961,238.486664 841.032410,239.198517 843.441589,238.925354 
	C849.323120,238.258469 855.614807,240.887497 861.070984,236.777710 
	C865.046814,240.722458 869.320618,244.412598 872.946655,248.656174 
	C888.413147,266.756622 903.669678,285.036377 919.049194,303.211426 
	C922.004700,306.704132 925.168640,310.020477 928.236389,313.418152 
	C928.762817,313.258698 929.289185,313.099243 929.815613,312.939758 
	C929.815613,288.583435 929.815613,264.227112 930.330200,239.610352 
	C931.630371,239.558868 932.423096,239.972229 933.200623,239.945541 
	C942.224609,239.635681 951.246216,239.259354 960.268494,238.900665 
	C960.631042,240.053085 961.306702,241.204376 961.310913,242.358109 
	C961.461731,283.977783 961.551086,325.597687 961.637695,367.217590 
	C961.639404,368.019043 961.506653,368.820801 961.409424,369.933289 
	C952.597717,369.933289 943.983459,370.168793 935.401367,369.747833 
	C933.535217,369.656311 931.438904,367.500671 930.032471,365.809998 
	C910.662170,342.525665 891.399109,319.152191 872.088745,295.817963 
	C870.944397,294.435242 869.622070,293.199768 867.323486,290.781555 
	C867.323486,310.763275 867.323486,329.429474 866.921631,348.548523 
	C866.341064,348.997345 866.162476,348.993378 866.002380,348.522034 
	C866.013794,330.759796 866.034363,313.464813 865.956665,296.170258 
	C865.948914,294.447418 865.342834,292.727264 864.731567,291.016846 
	C864.260010,291.038574 864.071533,291.049255 863.608215,291.360046 
	C863.235535,293.474457 863.056030,295.288666 863.052246,297.103180 
	C863.002563,321.347961 862.977417,345.592804 862.946228,369.837646 
z"/>
<path fill="#172638" opacity="1.000000" stroke="none" 
	d="
M541.208252,326.757690 
	C551.070374,340.800018 560.932495,354.842377 571.617737,370.056732 
	C558.917542,370.056732 548.009521,370.190735 537.112732,369.900513 
	C535.617065,369.860687 533.806152,367.971741 532.772156,366.496613 
	C525.999390,356.834473 519.486084,346.989960 512.678467,337.353027 
	C511.148804,335.187683 508.788879,333.608826 506.332428,331.352264 
	C498.926208,330.519348 491.998749,330.094147 485.071259,329.668976 
	C485.067841,329.973267 485.064392,330.277588 485.060974,330.581879 
	C486.032410,331.036011 487.003876,331.490112 487.975342,331.944244 
	C485.834167,331.944244 483.692993,331.944244 481.136993,331.944244 
	C481.136993,342.354950 481.161896,352.465454 481.128479,362.575745 
	C481.105225,369.598389 480.666046,370.062836 473.881012,370.102356 
	C465.559540,370.150848 457.237549,370.113922 448.170044,370.113922 
	C448.170044,368.363678 448.170135,366.784637 448.170013,365.205597 
	C448.167175,324.390198 448.162384,283.574829 448.163300,242.759445 
	C448.163452,235.325684 448.553375,234.853485 456.136566,234.959763 
	C476.945984,235.251434 497.781158,235.104843 518.553894,236.159866 
	C534.129089,236.950928 548.540955,242.166580 558.192200,255.269318 
	C569.949280,271.230835 571.187378,288.615234 562.055908,306.646423 
	C561.059753,306.442902 560.296265,305.829254 560.146912,305.953522 
	C554.620239,310.553528 548.957825,315.021881 543.789124,320.001495 
	C542.217651,321.515442 542.029785,324.465424 541.208252,326.757690 
M480.337830,276.507812 
	C480.337830,286.248138 480.337830,295.988464 480.337830,306.500671 
	C490.744751,306.500671 500.523193,306.211395 510.274261,306.603302 
	C516.679504,306.860779 521.849609,304.511993 526.834473,301.040527 
	C534.224915,295.893799 535.422546,288.379700 534.437744,280.295959 
	C533.397339,271.755890 528.761230,265.108826 520.149536,263.983368 
	C507.131012,262.281982 493.915314,262.089142 480.337891,261.226929 
	C480.337891,266.921448 480.337891,271.217102 480.337830,276.507812 
M452.026642,262.500305 
	C452.026642,296.818878 452.026642,331.137421 452.026642,365.455994 
	C452.289581,365.453613 452.552551,365.451202 452.815491,365.448822 
	C452.815491,324.674316 452.815491,283.899811 452.815491,243.125305 
	C452.552551,243.124283 452.289642,243.123260 452.026703,243.122238 
	C452.026703,249.248367 452.026703,255.374481 452.026642,262.500305 
M485.500000,240.995590 
	C499.937256,240.995590 514.374512,240.995590 528.811768,240.995590 
	C528.807678,240.768555 528.803650,240.541504 528.799561,240.314468 
	C504.243408,240.314468 479.687256,240.314468 455.131104,240.314468 
	C455.130829,240.541656 455.130524,240.768845 455.130249,240.996033 
	C464.920166,240.996033 474.710083,240.996033 485.500000,240.995590 
z"/>
<path fill="#152537" opacity="1.000000" stroke="none" 
	d="
M1078.980591,119.011078 
	C1080.384399,118.348694 1082.136475,118.019691 1083.138550,116.972794 
	C1094.078613,105.543083 1104.919189,94.018044 1115.748291,82.482651 
	C1121.221069,76.652901 1126.734863,70.853752 1131.994385,64.834915 
	C1134.634033,61.814243 1137.585205,60.557186 1141.573975,60.626797 
	C1151.817627,60.805580 1162.066528,60.686535 1173.540039,60.686535 
	C1169.038696,65.488953 1165.449341,69.315735 1161.862915,73.145218 
	C1148.766968,87.128723 1135.804199,101.240868 1122.491333,115.014633 
	C1118.781616,118.852760 1118.888550,121.458687 1122.114990,125.509521 
	C1139.230835,146.998291 1156.088257,168.693039 1172.998535,190.345032 
	C1174.177124,191.854050 1175.059326,193.594437 1176.600830,196.061981 
	C1163.729370,196.061981 1151.834839,196.151306 1139.945923,195.932480 
	C1138.668701,195.908981 1137.172852,194.293686 1136.203125,193.078033 
	C1124.262451,178.108490 1112.386719,163.087189 1100.527344,148.052902 
	C1096.619019,143.098083 1095.713867,143.055191 1091.499268,147.853378 
	C1088.091675,151.732819 1084.570801,155.515274 1081.250854,159.467407 
	C1080.131470,160.800003 1079.474609,162.521301 1078.257812,164.615509 
	C1077.604492,167.248367 1077.066895,169.327316 1077.036743,171.413589 
	C1076.929443,178.843353 1076.994751,186.275620 1076.994751,193.744019 
	C1066.986450,193.744019 1057.741333,193.744019 1048.037354,193.744019 
	C1048.037354,149.296967 1048.037354,105.175926 1048.037354,61.054882 
	C1057.710815,61.311623 1067.384277,61.568359 1077.052368,62.600288 
	C1077.046997,63.929188 1077.047119,64.482903 1077.023438,65.501503 
	C1077.000610,81.297623 1076.970947,96.629021 1077.045288,111.959900 
	C1077.053589,113.691681 1077.648926,115.420609 1077.966064,117.370842 
	C1077.960205,117.590820 1078.057617,118.020012 1078.101562,118.269577 
	C1078.423950,118.683128 1078.702271,118.847107 1078.980591,119.011078 
z"/>
<path fill="#1B2939" opacity="1.000000" stroke="none" 
	d="
M814.258545,60.720268 
	C820.716736,63.075092 826.776855,65.307404 832.820190,67.584328 
	C837.334473,69.285133 838.416687,72.367271 836.460815,76.708237 
	C834.482483,81.099091 832.565979,85.518288 830.665527,89.943581 
	C828.892395,94.072411 826.421082,94.596481 822.361328,92.551178 
	C808.128662,85.380867 793.113525,82.663643 777.354004,86.171997 
	C768.643555,88.111099 764.541809,92.929520 765.162231,99.481392 
	C765.745239,105.637970 769.716370,108.388161 775.091003,109.810860 
	C787.941467,113.212433 800.813599,116.532936 813.653564,119.973297 
	C816.693665,120.787857 819.667969,121.874107 822.628113,122.956718 
	C851.499207,133.515717 851.136719,169.414795 831.351929,185.113831 
	C823.198853,191.583221 813.984436,195.165955 803.623718,196.551300 
	C783.113098,199.293762 763.091248,198.273880 743.844299,190.092117 
	C727.245178,183.035919 727.091675,182.405304 735.418335,166.757309 
	C736.972595,163.836517 738.576172,160.941940 740.408813,157.572098 
	C747.172729,160.589844 753.786621,163.544418 760.403687,166.492065 
	C774.804504,172.907059 789.476135,172.505951 804.299500,168.225052 
	C809.348328,166.766983 811.501587,163.016693 811.731445,158.148315 
	C811.975830,152.971085 809.054993,149.525497 804.363342,148.061768 
	C794.059692,144.847244 783.640198,142.004562 773.275330,138.985306 
	C767.535156,137.313248 761.653320,135.989441 756.108337,133.813171 
	C742.305664,128.396042 732.142273,119.273163 731.805176,103.501587 
	C731.447205,86.750275 738.472534,73.058807 754.121460,65.942307 
	C761.951599,62.381474 770.951233,60.412479 779.568665,59.804783 
	C790.921326,59.004200 802.418335,60.250603 814.258545,60.720268 
z"/>
<path fill="#192839" opacity="1.000000" stroke="none" 
	d="
M330.175201,110.000420 
	C330.208618,104.504791 330.263977,99.509102 330.266479,94.513382 
	C330.270050,87.277367 329.705841,86.770760 322.648285,86.816841 
	C312.823792,86.880989 302.998779,86.887299 293.174072,86.871239 
	C291.213623,86.868034 289.253540,86.652962 287.075745,86.522552 
	C287.075745,77.887436 287.075745,69.651978 287.075745,61.193382 
	C326.633484,61.193382 366.022095,61.193382 405.678467,61.193382 
	C405.678467,69.567932 405.678467,77.830437 405.678467,86.866890 
	C401.702362,86.866890 397.619110,86.868958 393.535828,86.866447 
	C385.875702,86.861725 378.215271,86.891411 370.555481,86.837448 
	C363.176788,86.785469 362.548950,87.332306 362.551117,94.648125 
	C362.560577,126.454735 362.587280,158.261337 362.607513,190.067947 
	C362.608643,191.868820 362.607635,193.669708 362.607635,195.707855 
	C351.726746,195.707855 341.304352,195.707855 330.173523,195.707855 
	C330.173523,167.310028 330.173523,138.905182 330.175201,110.000420 
M360.500000,64.016632 
	C339.367615,64.016632 318.235229,64.016632 297.102875,64.016632 
	C297.105072,64.238098 297.107269,64.459564 297.109467,64.681030 
	C331.028442,64.681030 364.947418,64.681030 398.866394,64.681030 
	C398.866821,64.459572 398.867249,64.238106 398.867676,64.016647 
	C386.411774,64.016647 373.955902,64.016647 360.500000,64.016632 
M361.009277,159.499725 
	C361.009277,152.058243 361.009277,144.616776 361.009277,137.175293 
	C360.777802,137.181961 360.546356,137.188614 360.314880,137.195282 
	C360.314880,151.072037 360.314880,164.948792 360.314880,178.825546 
	C360.546234,178.826416 360.777618,178.827286 361.008972,178.828156 
	C361.008972,172.718567 361.008972,166.608978 361.009277,159.499725 
M336.025024,153.623840 
	C336.143829,154.092010 336.262634,154.560181 336.721985,156.370163 
	C336.721985,141.347336 336.721985,127.685722 336.721985,114.024117 
	C336.487457,114.022285 336.252960,114.020454 336.018433,114.018623 
	C336.018433,126.946655 336.018433,139.874680 336.025024,153.623840 
z"/>
<path fill="#142436" opacity="1.000000" stroke="none" 
	d="
M899.952698,195.821396 
	C898.908875,195.868225 897.864990,195.915054 896.441040,195.557678 
	C895.414917,194.407730 894.768860,193.661957 894.081604,192.454529 
	C893.971619,158.369904 893.902893,124.746925 893.776733,90.802246 
	C892.849304,89.302246 891.979370,88.123955 891.109375,86.945679 
	C877.636230,86.945694 864.163086,86.945694 850.296753,86.945694 
	C850.296753,78.244743 850.296753,69.864922 850.296753,60.935421 
	C852.045959,60.854328 853.973938,60.691624 855.902283,60.686413 
	C891.045349,60.591415 926.188354,60.510849 961.331421,60.438789 
	C968.943054,60.423183 969.317505,60.870441 969.123291,68.220833 
	C969.013367,72.380890 968.793457,76.577370 969.195923,80.701553 
	C969.686523,85.728371 967.544373,87.119545 962.882019,86.948044 
	C954.563416,86.642067 946.229858,86.739685 937.107910,86.418610 
	C935.319763,86.112816 934.326721,86.016769 933.332886,86.007294 
	C923.185852,85.910507 923.017090,86.097580 923.005188,96.179932 
	C922.969055,126.935577 922.918457,157.691208 922.873962,188.446838 
	C922.871460,190.206589 922.873718,191.966324 922.873718,193.977768 
	C916.175598,193.977768 910.206482,193.898651 904.242126,194.033875 
	C902.766785,194.067322 901.307312,194.796524 899.852417,195.362732 
	C899.864319,195.519547 899.952698,195.821396 899.952698,195.821396 
z"/>
<path fill="#142437" opacity="1.000000" stroke="none" 
	d="
M713.592468,367.081726 
	C712.249268,368.087921 710.930359,369.925415 709.558899,369.965485 
	C700.591858,370.227448 691.613403,370.100311 682.206543,370.100311 
	C682.206543,334.325836 682.206543,298.645111 682.206543,262.174316 
	C679.880005,262.174316 677.974304,262.174316 676.068665,262.174316 
	C664.591858,262.174316 653.113953,262.244385 641.639648,262.074249 
	C640.385986,262.055695 639.152771,260.654480 638.253906,259.560730 
	C639.049438,259.485291 639.501038,259.743683 640.426147,260.001770 
	C654.633911,260.001434 668.368103,260.001434 682.102356,260.001434 
	C682.103577,259.347473 682.104797,258.693542 682.106018,258.039581 
	C670.077026,258.039581 658.048035,258.039581 645.801697,257.751984 
	C639.309509,251.770981 641.060425,242.166107 649.422729,239.005798 
	C684.238342,238.969360 718.580139,238.934875 753.097046,239.287872 
	C753.513123,243.117264 753.916321,246.556992 753.961975,250.001480 
	C754.062378,257.589355 753.592163,258.007233 746.213196,258.011444 
	C736.089478,258.017212 725.965027,257.953827 715.843201,258.091248 
	C714.846924,258.104767 713.866882,259.311340 713.019714,260.241882 
	C713.408142,261.276581 713.656189,262.033539 713.904175,262.790497 
	C713.664001,263.380859 713.423767,263.971222 712.704468,264.913513 
	C712.442749,265.834930 712.660095,266.404419 712.877380,266.973907 
	C713.081177,268.596924 713.453979,270.218903 713.463745,271.843048 
	C713.649597,302.631287 713.792542,333.419830 713.572388,364.643494 
	C713.331055,365.746368 713.461731,366.414062 713.592468,367.081726 
M710.998718,295.500000 
	C710.998718,317.885590 710.998718,340.271179 710.998718,362.656769 
	C711.232178,362.654114 711.465637,362.651428 711.699097,362.648743 
	C711.699097,331.474487 711.699097,300.300232 711.699097,269.125977 
	C711.465820,269.125031 711.232605,269.124054 710.999329,269.123108 
	C710.999329,277.582062 710.999329,286.041046 710.998718,295.500000 
z"/>
<path fill="#132335" opacity="1.000000" stroke="none" 
	d="
M676.308350,173.880737 
	C676.271790,172.874603 676.235229,171.868469 676.643860,170.436218 
	C677.396118,168.787766 677.969055,167.565720 677.970459,166.343033 
	C677.993469,146.235733 677.944519,126.128365 677.957153,105.558182 
	C677.972168,101.056549 677.941772,97.017738 677.940674,92.512848 
	C677.947510,86.038757 677.925049,80.030754 677.945801,73.588882 
	C678.660217,69.808510 679.331421,66.461990 680.470703,63.085876 
	C689.624817,63.062416 698.310852,63.068550 706.977783,63.046021 
	C706.958679,63.017361 706.909607,63.066349 706.941467,63.526142 
	C707.023621,68.332291 707.073914,72.678650 707.072754,77.488434 
	C707.075134,108.952538 707.129028,139.953217 707.143799,171.423630 
	C707.089478,177.553085 707.041016,183.212982 707.071106,188.872467 
	C707.089844,192.394714 705.481628,194.038086 701.903992,193.988068 
	C697.246704,193.922974 692.586731,194.051483 687.491211,194.061340 
	C684.700989,194.015228 682.347412,194.004486 679.581543,193.947144 
	C678.355225,194.010483 677.541138,194.120422 676.727112,194.230377 
	C676.655273,193.122375 676.583496,192.014404 676.918457,190.395462 
	C677.543823,185.194061 677.828674,180.504654 677.902954,175.811905 
	C677.913025,175.176743 676.865967,174.524872 676.308350,173.880737 
z"/>
<path fill="#112032" opacity="1.000000" stroke="none" 
	d="
M1011.985046,61.122681 
	C1013.063721,61.365814 1014.142456,61.608936 1015.160461,62.588196 
	C1015.090759,63.900604 1015.081665,64.476868 1015.041870,65.516281 
	C1015.040344,108.294823 1015.069458,150.610214 1015.049561,193.167313 
	C1015.000488,193.409027 1014.986755,193.902084 1014.520996,193.949219 
	C1004.706909,193.972763 995.358704,193.949188 986.004028,193.960632 
	C985.997681,193.995651 986.067871,194.007492 986.040527,193.538116 
	C986.056763,149.712830 986.100342,106.356918 986.603516,63.006588 
	C993.277222,63.008308 999.497559,63.159985 1005.702087,62.914570 
	C1007.816772,62.830925 1009.891846,61.748646 1011.985046,61.122681 
z"/>
<path fill="#1A293B" opacity="1.000000" stroke="none" 
	d="
M803.991577,238.032333 
	C804.552124,239.441360 805.598877,240.849091 805.602661,242.259598 
	C805.714111,284.130463 805.723450,326.001556 805.732849,367.872650 
	C805.733032,368.498962 805.529236,369.125336 805.410217,369.811768 
	C796.125977,369.811768 787.026184,369.811768 777.484375,369.246033 
	C776.698242,364.458496 776.354126,360.236694 776.010132,355.544769 
	C776.004639,348.385925 775.998962,341.697205 775.997803,334.539307 
	C775.999146,310.377289 775.996155,286.684448 775.995483,262.525635 
	C776.001831,257.034607 776.005859,252.009567 776.012451,246.555786 
	C776.136230,239.070465 776.240906,238.968338 783.397949,238.964188 
	C786.222046,238.962555 789.046204,238.964050 791.870300,238.964508 
	C801.425903,238.966034 801.422607,238.966370 802.188477,248.563004 
	C802.202576,248.740036 802.609375,248.885712 803.991577,249.876511 
	C803.991577,245.378159 803.991577,241.705246 803.991577,238.032333 
M781.989502,287.500000 
	C781.989502,276.074707 781.989502,264.649445 781.989502,253.224152 
	C781.768494,253.228882 781.547546,253.233597 781.326538,253.238327 
	C781.326538,288.419708 781.326538,323.601074 781.326538,358.782440 
	C781.547424,358.782257 781.768372,358.782043 781.989258,358.781860 
	C781.989258,335.354584 781.989258,311.927277 781.989502,287.500000 
z"/>
<path fill="#212B34" opacity="1.000000" stroke="none" 
	d="
M1047.167725,371.835632 
	C1033.872314,370.053650 1021.705505,366.402100 1011.070862,358.685547 
	C966.866089,326.610260 975.393921,260.127991 1024.061890,240.202484 
	C1054.263794,227.837341 1082.877319,230.239349 1109.225342,250.502197 
	C1111.443237,252.207825 1113.585693,254.011398 1115.979980,255.944611 
	C1108.297729,262.999725 1101.601196,269.149628 1094.710938,275.477356 
	C1090.841797,272.729126 1087.158691,269.925293 1083.293091,267.400665 
	C1068.566406,257.782593 1041.954468,259.316223 1029.439941,271.139923 
	C1016.758423,283.121338 1012.658997,298.061462 1017.490173,314.917511 
	C1022.298218,331.692902 1034.280884,340.727509 1050.964844,343.949005 
	C1061.096924,345.905426 1070.774292,343.989441 1080.190674,339.970459 
	C1082.774536,338.867706 1083.490479,337.507599 1083.450684,334.804993 
	C1083.286011,323.653656 1083.381714,312.498535 1083.381714,300.984436 
	C1093.342651,300.984436 1103.065796,300.984436 1113.266968,300.984436 
	C1113.266968,306.112274 1113.221802,311.227936 1113.276367,316.342560 
	C1113.386353,326.663147 1113.397339,336.988373 1113.745850,347.301636 
	C1113.980591,354.249207 1110.643433,358.471344 1104.706665,361.399353 
	C1086.650391,370.304779 1067.693604,374.120178 1047.167725,371.835632 
M1030.328247,241.292679 
	C1023.536682,245.341476 1016.919189,249.729889 1009.897339,253.329330 
	C1004.478516,256.107056 1001.847412,260.205048 1000.422729,265.893433 
	C999.179443,270.857483 997.670349,275.979797 995.080750,280.317017 
	C992.608826,284.457214 993.376343,291.370026 986.447205,291.710693 
	C984.629883,306.120026 985.801575,319.989075 993.410706,332.010010 
	C998.683472,340.340027 1005.482117,348.030701 1012.825623,354.645203 
	C1023.237183,364.023102 1035.828247,368.251831 1050.316650,368.228210 
	C1067.638794,368.199951 1084.337036,366.728516 1100.222656,359.157166 
	C1109.077881,354.936615 1112.748291,349.487854 1110.029297,340.160797 
	C1107.584839,331.774719 1109.031738,323.946289 1111.156006,315.996887 
	C1112.307495,311.687927 1109.989990,306.032227 1105.610840,305.574799 
	C1099.818115,304.969788 1093.877197,305.783234 1087.383667,306.556091 
	C1087.258301,316.360382 1087.132935,326.164703 1086.931641,336.674866 
	C1083.995361,342.691772 1078.324829,344.360931 1072.543579,346.411072 
	C1062.524170,349.964172 1053.078857,350.550476 1042.986694,346.055542 
	C1031.138184,340.778381 1020.938232,333.937439 1016.440063,321.443390 
	C1013.925842,314.460205 1013.835693,306.642120 1011.864380,299.415405 
	C1009.707825,291.509064 1011.851807,284.731049 1016.687317,279.004822 
	C1021.081909,273.800690 1026.097900,268.765717 1031.766357,265.081116 
	C1039.162231,260.273773 1047.021729,255.435135 1056.688599,257.002686 
	C1062.574463,257.957123 1068.595337,258.444153 1074.295776,260.058197 
	C1078.568726,261.268005 1082.470581,263.860474 1086.449829,266.000519 
	C1088.035889,266.853455 1089.244385,268.610992 1090.882446,269.108215 
	C1092.562500,269.618286 1095.172607,269.831451 1096.307007,268.888672 
	C1100.931885,265.044495 1105.147339,260.707733 1110.498291,255.615509 
	C1093.253906,243.223999 1076.398926,235.784561 1055.428345,240.394714 
	C1051.972168,240.260834 1048.509888,239.933044 1045.061157,240.040344 
	C1040.365845,240.186447 1035.680908,240.664642 1030.328247,241.292679 
z"/>
<path fill="#232D36" opacity="1.000000" stroke="none" 
	d="
M169.535797,173.527313 
	C172.221115,167.959549 174.698975,162.714096 177.391739,157.013748 
	C182.590668,159.560608 187.722412,161.801041 192.592148,164.512100 
	C206.465683,172.235672 221.259644,172.085114 236.281952,169.833725 
	C238.665085,169.476547 241.017242,168.264847 243.152405,167.043747 
	C246.907303,164.896286 249.623383,162.157043 248.929642,157.096054 
	C248.263870,152.239105 245.872223,148.975769 241.414230,147.475967 
	C233.549881,144.830124 225.609375,142.399033 217.649338,140.052444 
	C210.002945,137.798294 202.293518,135.757507 194.607986,133.636765 
	C179.903198,129.579117 170.850830,119.948792 169.265594,104.921066 
	C167.661697,89.716515 173.963837,77.396309 186.590240,68.505196 
	C196.571823,61.476486 208.101608,60.359627 219.791977,59.331276 
	C237.217056,57.798473 254.007385,59.091057 269.590851,67.970665 
	C274.791138,70.933815 275.172913,71.815575 272.741058,77.396568 
	C270.297180,83.005219 267.967407,88.663612 265.680267,94.080711 
	C256.904694,91.211990 248.544067,87.911255 239.894135,85.790382 
	C228.246735,82.934555 216.600800,83.765846 206.169708,90.178886 
	C203.962814,91.535690 202.780823,95.484352 202.268997,98.436859 
	C201.644135,102.041283 203.067337,105.526093 206.983093,106.852432 
	C217.187881,110.308968 227.421280,113.690056 237.709335,116.888733 
	C244.842712,119.106590 252.184738,120.677673 259.258209,123.058640 
	C272.051239,127.364876 280.896820,135.892166 282.802948,149.536270 
	C284.802063,163.845764 280.056458,176.192795 268.517303,185.326538 
	C258.391968,193.341141 246.351334,196.742340 233.783875,197.787979 
	C212.646729,199.546570 192.334442,196.169037 173.365494,186.211380 
	C165.231354,181.941406 165.193253,181.804733 169.535797,173.527313 
M211.706619,63.132156 
	C203.013565,67.147896 194.255081,71.029236 185.646561,75.218658 
	C177.665344,79.102791 174.177475,86.013481 174.997849,94.848000 
	C175.502869,100.286392 175.282272,105.819107 176.147461,111.186981 
	C176.664886,114.397202 177.862839,118.213120 180.106964,120.309395 
	C191.589783,131.035797 205.723587,135.908752 221.193527,136.925018 
	C226.641388,137.282898 232.414597,135.877075 235.931793,141.828064 
	C236.225464,142.324936 236.976120,142.816376 237.540848,142.848648 
	C245.878952,143.325211 249.460922,150.020508 253.821014,155.499710 
	C255.814575,158.004990 256.081451,160.992157 252.716827,163.186310 
	C251.481354,163.992035 250.220917,164.990005 249.422562,166.198120 
	C244.254715,174.018250 235.966599,175.126694 227.824631,175.904266 
	C214.844299,177.143921 202.885483,172.852966 191.330292,167.608337 
	C179.816345,162.382431 179.908203,162.180038 174.297592,173.401978 
	C170.961609,180.074387 171.322052,180.783844 177.977280,184.519028 
	C188.626999,190.496094 200.583710,192.818405 212.213547,193.537704 
	C225.185196,194.339996 238.367615,191.822037 251.449478,190.650711 
	C253.216629,190.492462 255.093018,190.064865 256.645874,189.244995 
	C266.548004,184.017075 273.158325,176.253021 277.403595,165.606400 
	C283.144135,151.209915 277.039124,134.304489 265.027893,129.619431 
	C255.493378,125.900444 245.699371,122.845497 236.014053,119.514740 
	C225.406372,115.866768 214.732529,112.397491 204.229721,108.470055 
	C202.175766,107.701988 199.786896,105.459969 199.243393,103.442299 
	C197.155457,95.691399 201.748413,89.655396 205.532852,83.570839 
	C206.041290,82.753395 207.502335,82.228180 208.580627,82.112671 
	C217.658966,81.140236 226.622177,80.075928 235.887100,81.749908 
	C243.317459,83.092422 250.395660,84.735901 257.075043,88.275658 
	C258.272797,88.910423 260.822052,88.935280 261.563538,88.139198 
	C264.134277,85.379051 266.429230,82.278397 268.353271,79.025818 
	C269.909119,76.395660 269.261841,73.462158 266.320526,72.275200 
	C257.900238,68.877182 249.902679,63.152512 239.957443,66.790337 
	C238.768433,67.225250 237.285812,67.149872 235.991852,66.957504 
	C228.156967,65.792656 220.337326,64.525078 211.706619,63.132156 
z"/>
<path fill="#2F3B46" opacity="1.000000" stroke="none" 
	d="
M569.997437,87.330490 
	C559.870789,87.330399 550.243408,87.330399 540.415222,87.330399 
	C540.415222,78.379539 540.415222,69.940468 540.415222,61.022205 
	C542.893616,60.851833 545.320984,60.545452 547.749146,60.539028 
	C583.058472,60.445595 618.367920,60.386272 653.677307,60.334377 
	C661.044983,60.323551 661.895569,61.344593 661.618591,68.805176 
	C661.470520,72.792068 661.507690,76.798187 661.713623,80.782578 
	C661.940186,85.164825 660.303284,87.238647 655.677979,87.162506 
	C645.520935,86.995308 635.359192,87.084534 625.199524,87.118156 
	C622.907776,87.125740 620.616699,87.333977 617.914062,87.470642 
	C617.914062,123.787842 617.914062,159.688232 617.914062,196.015076 
	C607.546692,196.015076 597.606567,196.115540 587.674683,195.874542 
	C586.564819,195.847595 585.017395,194.061600 584.539246,192.770523 
	C583.932739,191.132721 584.124573,189.166931 584.122559,187.342422 
	C584.087708,156.030243 584.076050,124.718063 584.059570,93.405876 
	C584.058594,91.593628 584.059509,89.781380 584.059509,87.330589 
	C579.335632,87.330589 574.916138,87.330589 569.997437,87.330490 
M650.413086,64.380417 
	C649.766174,64.259621 649.119263,64.033524 648.472290,64.033142 
	C616.205017,64.013992 583.937683,64.003349 551.670471,64.053909 
	C550.446533,64.055824 549.223450,64.669983 547.326050,65.317863 
	C546.555908,66.458092 545.192261,67.562851 545.121582,68.744873 
	C544.860046,73.121727 545.025208,77.524086 544.773926,82.493263 
	C556.108826,82.653313 567.443604,82.831100 578.779053,82.931686 
	C579.499634,82.938095 580.225647,82.344910 581.630432,82.267113 
	C586.317322,83.471085 588.144043,86.249924 588.108398,91.302750 
	C587.899414,120.919487 588.047607,150.538528 587.986816,180.156616 
	C587.955994,195.199341 589.868286,193.598297 600.933228,192.876389 
	C613.070312,192.084518 613.992249,193.448746 613.942566,180.035843 
	C613.836060,151.290192 613.292053,122.546364 613.078003,93.800667 
	C613.051147,90.183510 612.327393,85.903145 617.582825,84.619637 
	C626.981323,84.741066 636.379822,84.926430 645.778442,84.939613 
	C648.171265,84.942963 650.564819,84.399666 653.350708,83.526779 
	C660.387756,78.051880 659.294678,69.498169 650.413086,64.380417 
z"/>
<path fill="#333E49" opacity="1.000000" stroke="none" 
	d="
M443.987671,167.892899 
	C442.025299,169.953735 439.403564,171.698074 438.232086,174.138550 
	C435.436707,179.962158 433.503601,186.195206 430.824615,192.081940 
	C430.065826,193.749222 427.973755,195.891449 426.429291,195.944183 
	C416.304260,196.289871 406.161713,196.122253 395.254944,196.122253 
	C396.968048,191.654312 398.292938,187.589905 400.046448,183.719696 
	C417.799805,144.536896 435.675568,105.409447 453.355652,66.193741 
	C455.394073,61.672344 458.290741,60.104546 463.071960,60.331787 
	C469.716614,60.647591 476.407013,60.738449 483.040070,60.322987 
	C488.096313,60.006287 490.949677,61.711514 493.078857,66.381729 
	C509.270416,101.896851 525.645081,137.328674 542.032471,172.754166 
	C545.569397,180.400070 549.389404,187.914993 553.382996,196.114410 
	C541.651672,196.114410 530.701660,196.270325 519.767273,195.926834 
	C518.319946,195.881363 516.442993,193.534714 515.637085,191.839279 
	C512.294434,184.807343 509.331970,177.595581 506.100830,170.508698 
	C505.672150,169.568527 504.501678,168.966614 503.324615,167.780991 
	C502.984131,166.945053 502.993805,166.536163 503.021088,165.844513 
	C503.026733,165.373901 503.014771,165.186066 503.299683,165.112976 
	C504.388489,165.484940 505.180420,165.742126 506.353271,166.004364 
	C508.250122,167.485855 510.381195,168.692627 511.168457,170.488510 
	C513.692993,176.247513 515.765869,182.207870 517.921936,188.123749 
	C519.147278,191.485977 521.259949,193.215088 524.999329,193.062607 
	C529.316101,192.886581 533.646240,193.069794 537.969299,193.010056 
	C543.992737,192.926834 546.183838,189.824539 543.650085,184.392258 
	C526.326355,147.250687 508.928528,110.143532 491.436981,73.080765 
	C490.057343,70.157372 487.786987,67.654350 485.647156,64.659805 
	C477.276245,64.553970 469.188721,64.744286 460.781525,65.081039 
	C459.018433,66.739243 457.166290,68.031532 456.213226,69.806557 
	C453.941559,74.037376 452.078094,78.488686 450.078369,82.864052 
	C434.160095,117.693748 418.302551,152.551453 402.250000,187.319138 
	C400.671967,190.736923 402.002319,192.569443 404.718231,192.584808 
	C411.203552,192.621490 417.704132,191.959656 424.170624,191.304260 
	C425.205902,191.199326 426.444550,189.848175 426.996002,188.769775 
	C429.781128,183.323105 432.229736,177.701706 435.093506,172.299103 
	C436.322113,169.981339 438.270477,168.045105 440.041687,166.181931 
	C440.785065,166.274017 441.378571,166.119705 441.986755,165.980331 
	C442.001434,165.995270 441.976624,165.958099 442.286285,165.976715 
	C442.802399,165.982819 443.008881,165.970306 443.417786,165.968903 
	C443.620209,165.979996 444.021301,166.039581 444.010284,166.348373 
	C443.995392,167.069077 443.991516,167.480988 443.987671,167.892899 
z"/>
<path fill="#1A242E" opacity="1.000000" stroke="none" 
	d="
M608.993103,369.974487 
	C602.525513,369.974487 596.557007,369.974487 590.268005,369.974487 
	C590.173462,368.273529 590.024170,366.834595 590.023499,365.395599 
	C590.005371,324.432068 589.999695,283.468536 589.999207,242.505005 
	C589.999146,235.733185 590.174133,235.684113 597.113892,235.870758 
	C603.436890,236.040802 609.766724,235.982407 616.093506,235.979492 
	C622.386597,235.976593 622.302368,235.951813 622.295776,242.269028 
	C622.261536,274.740082 622.273926,307.211182 622.270691,339.682281 
	C622.269714,349.629639 622.270569,359.577026 622.270569,369.974487 
	C617.741943,369.974487 613.617065,369.974487 608.993103,369.974487 
M620.000000,296.500000 
	C620.000000,281.522247 620.020264,266.544434 619.990906,251.566727 
	C619.977661,244.779877 616.304321,241.067444 609.632996,241.005981 
	C606.138489,240.973801 602.632324,241.175308 599.151672,240.953430 
	C595.419739,240.715561 594.001038,242.476913 594.001343,245.930023 
	C594.004822,284.206512 594.011902,322.483002 593.987976,360.759491 
	C593.985596,364.611694 595.922119,366.103516 599.596069,366.023102 
	C603.754517,365.932129 607.916565,366.003265 612.077026,366.002045 
	C619.157959,365.999939 619.991272,365.171082 619.995728,357.910278 
	C620.008057,337.773529 620.000000,317.636749 620.000000,296.500000 
z"/>
<path fill="#737C82" opacity="1.000000" stroke="none" 
	d="
M1047.663086,61.102470 
	C1048.037354,105.175926 1048.037354,149.296967 1048.037354,193.744019 
	C1057.741333,193.744019 1066.986450,193.744019 1076.994751,193.744019 
	C1076.994751,186.275620 1076.929443,178.843353 1077.036743,171.413589 
	C1077.066895,169.327316 1077.604492,167.248367 1078.260620,164.990356 
	C1078.834961,173.783905 1079.104126,182.752380 1079.255249,191.722855 
	C1079.305176,194.685669 1077.778687,196.382126 1074.662476,196.402481 
	C1066.001587,196.459045 1057.338013,196.646957 1048.682861,196.453598 
	C1047.539551,196.428055 1046.032837,194.674240 1045.434570,193.379028 
	C1044.857178,192.128830 1045.201660,190.436432 1045.201660,188.938324 
	C1045.204102,148.960678 1045.175659,108.982895 1045.311890,69.005676 
	C1045.320801,66.384918 1046.600342,63.768494 1047.663086,61.102470 
z"/>
<path fill="#2D3641" opacity="1.000000" stroke="none" 
	d="
M803.738342,237.704529 
	C803.991577,241.705246 803.991577,245.378159 803.991577,249.876511 
	C802.609375,248.885712 802.202576,248.740036 802.188477,248.563004 
	C801.422607,238.966370 801.425903,238.966034 791.870300,238.964508 
	C789.046204,238.964050 786.222046,238.962555 783.397949,238.964188 
	C776.240906,238.968338 776.136230,239.070465 775.715942,246.850876 
	C775.609009,252.713669 775.801086,257.852631 775.993164,262.991577 
	C775.996155,286.684448 775.999146,310.377289 775.704956,334.834595 
	C775.608521,342.404327 775.809265,349.209595 776.010010,356.014893 
	C776.354126,360.236694 776.698242,364.458496 777.040161,369.095825 
	C774.605957,370.020569 773.087585,370.016541 773.098450,366.553955 
	C773.230957,324.181030 773.199646,281.807648 773.210693,239.434357 
	C773.210938,238.461578 773.210815,237.488815 773.210815,236.038681 
	C783.142517,236.038681 792.713074,236.022385 802.282959,236.095306 
	C802.686890,236.098389 803.084534,236.930710 803.738342,237.704529 
z"/>
<path fill="#121D28" opacity="1.000000" stroke="none" 
	d="
M639.952698,260.002075 
	C639.501038,259.743683 639.049438,259.485291 638.361572,259.116394 
	C638.413330,252.925812 638.733032,246.847031 638.978027,240.765213 
	C639.136536,236.828674 641.509521,235.931595 644.940308,235.947830 
	C657.749268,236.008438 670.559204,235.877090 683.367798,235.966034 
	C706.988098,236.130066 730.607727,236.398849 754.580688,237.286224 
	C754.933777,245.189041 754.933777,252.429611 754.933777,260.186340 
	C747.157898,260.186340 740.015991,260.186340 732.453613,260.142700 
	C730.055176,260.112488 728.077148,260.125946 725.633179,260.075073 
	C721.071289,259.995239 716.975281,259.979706 712.879333,259.964172 
	C713.866882,259.311340 714.846924,258.104767 715.843201,258.091248 
	C725.965027,257.953827 736.089478,258.017212 746.213196,258.011444 
	C753.592163,258.007233 754.062378,257.589355 753.961975,250.001480 
	C753.916321,246.556992 753.513123,243.117264 752.812378,238.997192 
	C751.700012,238.220963 751.047485,238.037445 750.394897,238.037125 
	C717.801941,238.021561 685.208984,238.010925 652.616089,238.061707 
	C651.393250,238.063614 650.171265,238.678513 648.948914,239.007751 
	C641.060425,242.166107 639.309509,251.770981 645.557129,258.030151 
	C643.670837,259.064667 641.811768,259.533356 639.952698,260.002075 
z"/>
<path fill="#5F686F" opacity="1.000000" stroke="none" 
	d="
M687.927917,194.096680 
	C692.586731,194.051483 697.246704,193.922974 701.903992,193.988068 
	C705.481628,194.038086 707.089844,192.394714 707.071106,188.872467 
	C707.041016,183.212982 707.089478,177.553085 707.402710,171.111877 
	C707.807373,169.681595 708.007141,169.032852 708.007446,168.384033 
	C708.022278,139.173508 708.030640,109.962967 707.981262,80.752510 
	C707.979187,79.509529 707.422546,78.267479 707.124268,77.024994 
	C707.073914,72.678650 707.023621,68.332291 707.274658,63.503773 
	C708.019653,63.022617 708.463257,63.023628 708.906860,63.024635 
	C709.217285,64.795792 709.795776,66.566513 709.798645,68.338165 
	C709.863342,108.434555 709.866943,148.531036 709.877014,188.627502 
	C709.878906,196.098068 709.350220,196.552689 701.960571,196.437943 
	C695.473450,196.337234 688.981140,196.485550 682.497498,196.300018 
	C680.650391,196.247162 678.825562,195.412842 676.858826,194.583618 
	C677.541138,194.120422 678.355225,194.010483 679.838135,194.238922 
	C682.980713,194.417084 685.454285,194.256882 687.927917,194.096680 
z"/>
<path fill="#737C82" opacity="1.000000" stroke="none" 
	d="
M899.840515,195.205917 
	C901.307312,194.796524 902.766785,194.067322 904.242126,194.033875 
	C910.206482,193.898651 916.175598,193.977768 922.873718,193.977768 
	C922.873718,191.966324 922.871460,190.206589 922.873962,188.446838 
	C922.918457,157.691208 922.969055,126.935577 923.005188,96.179932 
	C923.017090,86.097580 923.185852,85.910507 933.332886,86.007294 
	C934.326721,86.016769 935.319763,86.112816 936.636963,86.409615 
	C933.484985,87.387939 930.009155,88.125328 925.774292,89.023750 
	C925.774292,90.469460 925.775635,92.392868 925.774109,94.316277 
	C925.750732,124.539314 925.726929,154.762344 925.702759,184.985382 
	C925.701843,186.147797 925.723389,187.311111 925.686462,188.472473 
	C925.471436,195.231049 924.651123,196.015366 917.086182,195.684387 
	C910.862915,195.270935 905.351746,195.238419 899.840515,195.205917 
z"/>
<path fill="#2D3641" opacity="1.000000" stroke="none" 
	d="
M860.744263,236.510620 
	C855.614807,240.887497 849.323120,238.258469 843.441589,238.925354 
	C841.032410,239.198517 838.222961,238.486664 837.710327,242.938736 
	C837.349487,270.122650 837.290283,296.602020 837.194458,323.543091 
	C837.106873,339.008484 837.055847,354.012207 837.004822,369.015900 
	C836.375793,367.677094 835.199707,366.339386 835.197021,364.999329 
	C835.112000,322.584412 835.139832,280.169250 835.167603,237.754166 
	C835.167908,237.296631 835.394409,236.839279 835.551941,236.243530 
	C843.886902,236.243530 852.152222,236.243530 860.744263,236.510620 
z"/>
<path fill="#5F686F" opacity="1.000000" stroke="none" 
	d="
M1015.072632,65.053131 
	C1015.081665,64.476868 1015.090759,63.900604 1015.291504,62.934441 
	C1016.083069,64.458519 1017.198853,66.370285 1017.207092,68.286789 
	C1017.383972,109.650787 1017.440552,151.015320 1017.502258,192.379776 
	C1017.504822,194.096558 1018.094849,196.342316 1014.851440,195.453339 
	C1014.788330,194.581177 1014.887573,194.241638 1014.986816,193.902100 
	C1014.986755,193.902084 1015.000488,193.409027 1015.330627,192.872162 
	C1015.771301,191.354202 1015.978210,190.373184 1015.978638,189.392059 
	C1015.995789,149.346344 1016.003540,109.300606 1015.956299,69.254929 
	C1015.954651,67.853989 1015.380188,66.453712 1015.072632,65.053131 
z"/>
<path fill="#1A242E" opacity="1.000000" stroke="none" 
	d="
M257.730682,263.646820 
	C257.091400,264.472809 256.414368,264.926910 255.206741,265.736908 
	C253.162613,259.783295 251.192612,254.062317 249.234085,248.337418 
	C246.363464,239.946457 245.084686,239.003830 236.519119,239.003693 
	C233.361496,239.003632 230.178253,239.256012 227.052811,238.938889 
	C223.267853,238.554825 220.630417,239.507278 219.397247,243.705231 
	C218.180847,241.527908 217.229614,239.111069 215.646210,235.088043 
	C226.598846,235.088043 235.969879,234.900055 245.317825,235.280273 
	C246.808731,235.340912 248.868088,237.699188 249.515808,239.426147 
	C252.465973,247.291565 255.005661,255.310944 257.730682,263.646820 
z"/>
<path fill="#5F686F" opacity="1.000000" stroke="none" 
	d="
M1011.668640,60.864471 
	C1009.891846,61.748646 1007.816772,62.830925 1005.702087,62.914570 
	C999.497559,63.159985 993.277222,63.008308 986.271667,63.272717 
	C985.323547,64.503944 985.030212,65.474533 985.029663,66.445282 
	C985.006531,107.584183 984.999268,148.723114 985.053833,189.861938 
	C985.055664,191.244247 985.714966,192.625671 986.067871,194.007492 
	C986.067871,194.007492 985.997681,193.995651 986.097900,194.219009 
	C986.454346,194.924850 986.710632,195.407333 986.966858,195.889801 
	C983.338196,196.684830 983.838074,194.157501 983.838379,192.014481 
	C983.840942,172.524704 983.839478,153.034912 983.839355,133.545135 
	C983.839233,111.223503 983.839294,88.901878 983.839294,66.580246 
	C983.839294,64.762138 983.839294,62.944027 983.839294,60.606270 
	C993.208069,60.606270 1002.280151,60.606270 1011.668640,60.864471 
z"/>
<path fill="#121D28" opacity="1.000000" stroke="none" 
	d="
M428.201294,248.817810 
	C427.581329,248.357498 427.122955,247.791351 427.061279,247.184875 
	C426.229950,239.009308 426.243134,238.952271 418.138702,239.028717 
	C413.674927,239.070831 408.068848,237.781570 405.094757,239.969788 
	C402.482361,241.891876 402.904968,247.845459 401.824371,251.975876 
	C401.103729,254.730423 400.358154,257.701904 395.911194,256.889709 
	C396.974396,251.445587 398.437744,246.009125 399.980621,240.595291 
	C400.901428,237.364334 402.849640,235.703125 406.493591,235.778870 
	C415.108856,235.957977 423.730377,235.836411 432.944092,235.836411 
	C431.388245,240.385849 429.967773,244.539520 428.201294,248.817810 
z"/>
<path fill="#5F686F" opacity="1.000000" stroke="none" 
	d="
M732.874084,260.186340 
	C740.015991,260.186340 747.157898,260.186340 754.933777,260.186340 
	C754.933777,252.429611 754.933777,245.189041 754.962769,237.481445 
	C755.975159,238.155594 757.765808,239.266495 757.809875,240.442871 
	C758.075989,247.541046 757.942200,254.654236 757.942200,262.626678 
	C743.444153,262.626678 729.143982,262.626678 714.374023,262.708588 
	C713.656189,262.033539 713.408142,261.276581 713.019714,260.241882 
	C716.975281,259.979706 721.071289,259.995239 725.894775,260.319641 
	C728.706299,260.481110 730.790161,260.333710 732.874084,260.186340 
z"/>
<path fill="#5F686F" opacity="1.000000" stroke="none" 
	d="
M677.911743,106.021004 
	C677.944519,126.128365 677.993469,146.235733 677.970459,166.343033 
	C677.969055,167.565720 677.396118,168.787766 676.679443,170.059860 
	C676.127563,149.048019 675.985291,127.986412 676.242859,106.469360 
	C677.065674,106.016273 677.488708,106.018639 677.911743,106.021004 
z"/>
<path fill="#121D28" opacity="1.000000" stroke="none" 
	d="
M865.983765,348.989380 
	C866.162476,348.993378 866.341064,348.997345 866.787720,349.000854 
	C867.102112,354.703766 867.148376,360.407196 866.833679,366.694519 
	C866.218323,367.520081 866.083313,367.816223 866.067688,368.166779 
	C865.589355,368.746399 865.110962,369.326019 864.338989,369.420349 
	C863.991272,342.976715 863.937195,317.018311 863.883057,291.059937 
	C864.071533,291.049255 864.260010,291.038574 864.733337,291.484863 
	C865.007202,309.247284 864.968262,326.552826 865.028931,343.858002 
	C865.034973,345.569580 865.650940,347.278992 865.983765,348.989380 
z"/>
<path fill="#5F686F" opacity="1.000000" stroke="none" 
	d="
M891.202271,87.369675 
	C891.979370,88.123955 892.849304,89.302246 893.511047,91.102081 
	C893.204468,93.535194 893.021606,95.346703 893.020386,97.158325 
	C893.000854,126.848602 893.020142,156.538925 892.965149,186.229095 
	C892.961609,188.134995 892.423035,190.039902 892.133301,191.945267 
	C892.017334,186.470734 891.832153,180.996628 891.796997,175.521576 
	C891.609009,146.279083 891.458496,117.036346 891.202271,87.369675 
z"/>
<path fill="#2D3641" opacity="1.000000" stroke="none" 
	d="
M541.398193,326.440613 
	C542.029785,324.465424 542.217651,321.515442 543.789124,320.001495 
	C548.957825,315.021881 554.620239,310.553528 560.146912,305.953522 
	C560.296265,305.829254 561.059753,306.442902 561.777588,306.859375 
	C557.654541,315.993011 549.574829,321.008514 541.398193,326.440613 
z"/>
<path fill="#737C82" opacity="1.000000" stroke="none" 
	d="
M892.113159,192.266739 
	C892.423035,190.039902 892.961609,188.134995 892.965149,186.229095 
	C893.020142,156.538925 893.000854,126.848602 893.020386,97.158325 
	C893.021606,95.346703 893.204468,93.535194 893.568481,91.423798 
	C893.902893,124.746925 893.971619,158.369904 893.987427,192.671036 
	C893.825562,193.681503 893.599182,193.878860 893.255188,193.941284 
	C892.867737,193.490250 892.480347,193.039230 892.113159,192.266739 
z"/>
<path fill="#444F5C" opacity="1.000000" stroke="none" 
	d="
M503.003479,166.127274 
	C502.993805,166.536163 502.984131,166.945053 502.989227,167.660370 
	C491.304443,168.008789 479.604950,168.050797 467.145203,167.720642 
	C459.600525,167.524384 452.816101,167.700317 446.031647,167.876251 
	C445.576416,167.923904 445.121155,167.971558 444.326782,167.956055 
	C443.991516,167.480988 443.995392,167.069077 444.476715,166.337158 
	C464.303925,166.053864 483.653717,166.090576 503.003479,166.127274 
z"/>
<path fill="#525C67" opacity="1.000000" stroke="none" 
	d="
M708.819336,62.662601 
	C708.463257,63.023628 708.019653,63.022617 707.242798,63.043980 
	C706.909607,63.066349 706.958679,63.017361 706.698486,62.729942 
	C699.655273,62.295956 692.872131,62.055897 686.089233,62.059944 
	C684.060120,62.061157 682.031494,62.744598 680.002625,63.115479 
	C679.331421,66.461990 678.660217,69.808510 677.630005,73.583488 
	C676.848572,74.007950 676.426147,74.003944 676.003784,73.999939 
	C676.003784,69.690460 676.003784,65.380989 676.003784,60.756817 
	C686.385010,60.756817 696.617615,60.729473 706.849060,60.822922 
	C707.481079,60.828693 708.104492,61.785984 708.819336,62.662601 
z"/>
<path fill="#1A242E" opacity="1.000000" stroke="none" 
	d="
M960.374268,238.554932 
	C951.246216,239.259354 942.224609,239.635681 933.200623,239.945541 
	C932.423096,239.972229 931.630371,239.558868 930.497192,239.182434 
	C931.507202,238.142502 932.831970,236.578125 934.227661,236.512192 
	C942.121826,236.139221 950.033203,236.056900 957.937927,236.088562 
	C958.788147,236.091980 959.632812,237.469238 960.374268,238.554932 
z"/>
<path fill="#525C67" opacity="1.000000" stroke="none" 
	d="
M863.608215,291.360046 
	C863.937195,317.018311 863.991272,342.976715 864.051941,369.394226 
	C863.872742,369.876770 863.686951,369.900208 863.223755,369.880615 
	C862.977417,345.592804 863.002563,321.347961 863.052246,297.103180 
	C863.056030,295.288666 863.235535,293.474457 863.608215,291.360046 
z"/>
<path fill="#1A242E" opacity="1.000000" stroke="none" 
	d="
M341.491394,242.650909 
	C339.623260,241.752640 337.621765,240.509781 335.025696,238.828735 
	C326.956818,238.261841 319.482574,238.133118 312.008301,238.004379 
	C311.630615,237.999008 311.252899,237.993637 310.591980,237.992752 
	C313.077362,237.431732 315.823822,236.587021 318.619751,236.364822 
	C323.040466,236.013474 327.547974,236.469803 331.920563,235.869370 
	C337.317474,235.128311 340.863586,236.258026 341.491394,242.650909 
z"/>
<path fill="#5F686F" opacity="1.000000" stroke="none" 
	d="
M1077.047119,65.036621 
	C1077.047119,64.482903 1077.046997,63.929188 1077.207153,62.990520 
	C1077.976196,64.341736 1079.095825,66.072395 1079.114624,67.814934 
	C1079.292114,84.244034 1079.281738,100.675156 1078.957886,117.553001 
	C1078.412598,118.006882 1078.235107,118.013451 1078.057617,118.020012 
	C1078.057617,118.020012 1077.960205,117.590820 1077.970215,116.887383 
	C1077.985107,100.866234 1078.020264,85.548386 1077.953247,70.230988 
	C1077.945679,68.498238 1077.363159,66.768013 1077.047119,65.036621 
z"/>
<path fill="#525C67" opacity="1.000000" stroke="none" 
	d="
M837.236267,369.189087 
	C837.055847,354.012207 837.106873,339.008484 837.350342,323.524017 
	C837.542847,323.043243 837.860352,323.045654 837.860352,323.045654 
	C837.911865,334.139832 837.901550,345.234802 838.047119,356.327728 
	C838.101074,360.442566 838.520874,364.552612 838.673340,369.113586 
	C838.204468,369.495667 837.836060,369.428986 837.236267,369.189087 
z"/>
<path fill="#444F5C" opacity="1.000000" stroke="none" 
	d="
M488.436737,332.039307 
	C487.003876,331.490112 486.032410,331.036011 485.060974,330.581879 
	C485.064392,330.277588 485.067841,329.973267 485.071259,329.668976 
	C491.998749,330.094147 498.926208,330.519348 505.959290,331.330200 
	C500.342621,331.855347 494.620361,331.994873 488.436737,332.039307 
z"/>
<path fill="#737C82" opacity="1.000000" stroke="none" 
	d="
M987.407593,195.964417 
	C986.710632,195.407333 986.454346,194.924850 986.104248,194.183990 
	C995.358704,193.949188 1004.706909,193.972763 1014.520996,193.949219 
	C1014.887573,194.241638 1014.788330,194.581177 1014.455933,195.398956 
	C1005.431274,195.931152 996.639832,195.985092 987.407593,195.964417 
z"/>
<path fill="#5F686F" opacity="1.000000" stroke="none" 
	d="
M676.182007,174.341095 
	C676.865967,174.524872 677.913025,175.176743 677.902954,175.811905 
	C677.828674,180.504654 677.543823,185.194061 676.965820,190.038498 
	C676.422791,185.062149 676.239197,179.931808 676.182007,174.341095 
z"/>
<path fill="#5F686F" opacity="1.000000" stroke="none" 
	d="
M675.921509,74.395065 
	C676.426147,74.003944 676.848572,74.007950 677.586792,74.017349 
	C677.925049,80.030754 677.947510,86.038757 677.623169,92.518600 
	C676.851440,92.993576 676.426575,92.996719 676.001709,92.999855 
	C675.946655,90.954117 675.891602,88.908379 676.208496,86.168762 
	C676.388184,82.983665 676.195923,80.492432 676.003723,78.001205 
	C675.948914,76.930862 675.894104,75.860527 675.921509,74.395065 
z"/>
<path fill="#525C67" opacity="1.000000" stroke="none" 
	d="
M675.935059,93.458168 
	C676.426575,92.996719 676.851440,92.993576 677.593872,92.984680 
	C677.941772,97.017738 677.972168,101.056549 677.957153,105.558182 
	C677.488708,106.018639 677.065674,106.016273 676.324829,106.006729 
	C675.960876,101.971863 675.914673,97.944176 675.935059,93.458168 
z"/>
<path fill="#333E49" opacity="1.000000" stroke="none" 
	d="
M446.492737,167.953186 
	C452.816101,167.700317 459.600525,167.524384 466.681213,167.639542 
	C460.302917,167.963791 453.628387,167.996964 446.492737,167.953186 
z"/>
<path fill="#444F5C" opacity="1.000000" stroke="none" 
	d="
M899.852417,195.362732 
	C905.351746,195.238419 910.862915,195.270935 916.658447,195.603302 
	C911.582336,195.964081 906.221985,196.024994 900.407104,195.953644 
	C899.952698,195.821396 899.864319,195.519547 899.852417,195.362732 
z"/>
<path fill="#525C67" opacity="1.000000" stroke="none" 
	d="
M675.936646,78.441345 
	C676.195923,80.492432 676.388184,82.983665 676.291138,85.737030 
	C675.957825,83.626602 675.913696,81.254051 675.936646,78.441345 
z"/>
<path fill="#444F5C" opacity="1.000000" stroke="none" 
	d="
M893.299622,194.285248 
	C893.599182,193.878860 893.825562,193.681503 894.028687,193.132690 
	C894.768860,193.661957 895.414917,194.407730 896.054199,195.488190 
	C895.146362,195.425003 894.245239,195.027115 893.299622,194.285248 
z"/>
<path fill="#444F5C" opacity="1.000000" stroke="none" 
	d="
M713.127625,266.873779 
	C712.660095,266.404419 712.442749,265.834930 712.493530,265.162781 
	C712.967102,265.631317 713.172485,266.202484 713.127625,266.873779 
z"/>
<path fill="#444F5C" opacity="1.000000" stroke="none" 
	d="
M713.767334,366.865509 
	C713.461731,366.414062 713.331055,365.746368 713.523682,365.048920 
	C713.878784,365.562531 713.910461,366.105896 713.767334,366.865509 
z"/>
<path fill="#737C82" opacity="1.000000" stroke="none" 
	d="
M1078.101562,118.269577 
	C1078.235107,118.013451 1078.412598,118.006882 1078.856445,118.014816 
	C1079.162354,118.202103 1079.201660,118.374878 1079.110840,118.779373 
	C1078.702271,118.847107 1078.423950,118.683128 1078.101562,118.269577 
z"/>
<path fill="#172739" opacity="1.000000" stroke="none" 
	d="
M866.321533,368.061829 
	C866.083313,367.816223 866.218323,367.520081 866.680542,367.140930 
	C866.784058,367.321259 866.679749,367.639069 866.321533,368.061829 
z"/>
<path fill="#444F5C" opacity="1.000000" stroke="none" 
	d="
M312.287659,238.315674 
	C319.482574,238.133118 326.956818,238.261841 334.717712,238.694977 
	C327.525208,238.875244 320.046082,238.751114 312.287659,238.315674 
z"/>
<path fill="#444F5C" opacity="1.000000" stroke="none" 
	d="
M837.909668,322.574585 
	C837.860352,323.045654 837.542847,323.043243 837.386963,323.062317 
	C837.290283,296.602020 837.349487,270.122650 837.690918,243.348267 
	C837.968445,269.403320 837.963684,295.753448 837.909668,322.574585 
z"/>
<path fill="#444F5C" opacity="1.000000" stroke="none" 
	d="
M866.002319,348.522034 
	C865.650940,347.278992 865.034973,345.569580 865.028931,343.858002 
	C864.968262,326.552826 865.007202,309.247284 865.016357,291.473877 
	C865.342834,292.727264 865.948914,294.447418 865.956665,296.170258 
	C866.034363,313.464813 866.013794,330.759796 866.002319,348.522034 
z"/>
<path fill="#F4F6F7" opacity="1.000000" stroke="none" 
	d="
M480.337860,276.010315 
	C480.337891,271.217102 480.337891,266.921448 480.337891,261.226929 
	C493.915314,262.089142 507.131012,262.281982 520.149536,263.983368 
	C528.761230,265.108826 533.397339,271.755890 534.437744,280.295959 
	C535.422546,288.379700 534.224915,295.893799 526.834473,301.040527 
	C521.849609,304.511993 516.679504,306.860779 510.274261,306.603302 
	C500.523193,306.211395 490.744751,306.500671 480.337830,306.500671 
	C480.337830,295.988464 480.337830,286.248138 480.337860,276.010315 
z"/>
<path fill="#444F5C" opacity="1.000000" stroke="none" 
	d="
M452.026672,262.000458 
	C452.026703,255.374481 452.026703,249.248367 452.026703,243.122238 
	C452.289642,243.123260 452.552551,243.124283 452.815491,243.125305 
	C452.815491,283.899811 452.815491,324.674316 452.815491,365.448822 
	C452.552551,365.451202 452.289581,365.453613 452.026642,365.455994 
	C452.026642,331.137421 452.026642,296.818878 452.026672,262.000458 
z"/>
<path fill="#444F5C" opacity="1.000000" stroke="none" 
	d="
M485.000000,240.995819 
	C474.710083,240.996033 464.920166,240.996033 455.130249,240.996033 
	C455.130524,240.768845 455.130829,240.541656 455.131104,240.314468 
	C479.687256,240.314468 504.243408,240.314468 528.799561,240.314468 
	C528.803650,240.541504 528.807678,240.768555 528.811768,240.995590 
	C514.374512,240.995590 499.937256,240.995590 485.000000,240.995819 
z"/>
<path fill="#737C82" opacity="1.000000" stroke="none" 
	d="
M1077.023438,65.501503 
	C1077.363159,66.768013 1077.945679,68.498238 1077.953247,70.230988 
	C1078.020264,85.548386 1077.985107,100.866234 1077.976074,116.667404 
	C1077.648926,115.420609 1077.053589,113.691681 1077.045288,111.959900 
	C1076.970947,96.629021 1077.000610,81.297623 1077.023438,65.501503 
z"/>
<path fill="#525C67" opacity="1.000000" stroke="none" 
	d="
M361.000000,64.016640 
	C373.955902,64.016647 386.411774,64.016647 398.867676,64.016647 
	C398.867249,64.238106 398.866821,64.459572 398.866394,64.681030 
	C364.947418,64.681030 331.028442,64.681030 297.109467,64.681030 
	C297.107269,64.459564 297.105072,64.238098 297.102875,64.016632 
	C318.235229,64.016632 339.367615,64.016632 361.000000,64.016640 
z"/>
<path fill="#444F5C" opacity="1.000000" stroke="none" 
	d="
M361.009125,159.999557 
	C361.008972,166.608978 361.008972,172.718567 361.008972,178.828156 
	C360.777618,178.827286 360.546234,178.826416 360.314880,178.825546 
	C360.314880,164.948792 360.314880,151.072037 360.314880,137.195282 
	C360.546356,137.188614 360.777802,137.181961 361.009277,137.175293 
	C361.009277,144.616776 361.009277,152.058243 361.009125,159.999557 
z"/>
<path fill="#525C67" opacity="1.000000" stroke="none" 
	d="
M336.021729,153.213287 
	C336.018433,139.874680 336.018433,126.946655 336.018433,114.018623 
	C336.252960,114.020454 336.487457,114.022285 336.721985,114.024117 
	C336.721985,127.685722 336.721985,141.347336 336.721985,156.370163 
	C336.262634,154.560181 336.143829,154.092010 336.021729,153.213287 
z"/>
<path fill="#444F5C" opacity="1.000000" stroke="none" 
	d="
M649.422729,239.005798 
	C650.171265,238.678513 651.393250,238.063614 652.616089,238.061707 
	C685.208984,238.010925 717.801941,238.021561 750.394897,238.037125 
	C751.047485,238.037445 751.700012,238.220963 752.637268,238.609711 
	C718.580139,238.934875 684.238342,238.969360 649.422729,239.005798 
z"/>
<path fill="#2F3B46" opacity="1.000000" stroke="none" 
	d="
M710.999023,295.000000 
	C710.999329,286.041046 710.999329,277.582062 710.999329,269.123108 
	C711.232605,269.124054 711.465820,269.125031 711.699097,269.125977 
	C711.699097,300.300232 711.699097,331.474487 711.699097,362.648743 
	C711.465637,362.651428 711.232178,362.654114 710.998718,362.656769 
	C710.998718,340.271179 710.998718,317.885590 710.999023,295.000000 
z"/>
<path fill="#333E49" opacity="1.000000" stroke="none" 
	d="
M640.426147,260.001770 
	C641.811768,259.533356 643.670837,259.064667 645.774475,258.317749 
	C658.048035,258.039581 670.077026,258.039581 682.106018,258.039581 
	C682.104797,258.693542 682.103577,259.347473 682.102356,260.001434 
	C668.368103,260.001434 654.633911,260.001434 640.426147,260.001770 
z"/>
<path fill="#525C67" opacity="1.000000" stroke="none" 
	d="
M707.072815,77.488426 
	C707.422546,78.267479 707.979187,79.509529 707.981262,80.752510 
	C708.030640,109.962967 708.022278,139.173508 708.007446,168.384033 
	C708.007141,169.032852 707.807373,169.681595 707.441772,170.642151 
	C707.129028,139.953217 707.075134,108.952538 707.072815,77.488426 
z"/>
<path fill="#5F686F" opacity="1.000000" stroke="none" 
	d="
M680.470703,63.085884 
	C682.031494,62.744598 684.060120,62.061157 686.089233,62.059944 
	C692.872131,62.055897 699.655273,62.295956 706.717529,62.758602 
	C698.310852,63.068550 689.624817,63.062416 680.470703,63.085884 
z"/>
<path fill="#737C82" opacity="1.000000" stroke="none" 
	d="
M687.491211,194.061340 
	C685.454285,194.256882 682.980713,194.417084 680.250488,194.285522 
	C682.347412,194.004486 684.700989,194.015228 687.491211,194.061340 
z"/>
<path fill="#737C82" opacity="1.000000" stroke="none" 
	d="
M986.040527,193.538116 
	C985.714966,192.625671 985.055664,191.244247 985.053833,189.861938 
	C984.999268,148.723114 985.006531,107.584183 985.029663,66.445282 
	C985.030212,65.474533 985.323547,64.503944 985.812073,63.267147 
	C986.100342,106.356918 986.056763,149.712830 986.040527,193.538116 
z"/>
<path fill="#737C82" opacity="1.000000" stroke="none" 
	d="
M1015.041992,65.516281 
	C1015.380188,66.453712 1015.954651,67.853989 1015.956299,69.254929 
	C1016.003540,109.300606 1015.995789,149.346344 1015.978638,189.392059 
	C1015.978210,190.373184 1015.771301,191.354202 1015.379639,192.630432 
	C1015.069458,150.610214 1015.040344,108.294823 1015.041992,65.516281 
z"/>
<path fill="#444F5C" opacity="1.000000" stroke="none" 
	d="
M781.989380,288.000000 
	C781.989258,311.927277 781.989258,335.354584 781.989258,358.781860 
	C781.768372,358.782043 781.547424,358.782257 781.326538,358.782440 
	C781.326538,323.601074 781.326538,288.419708 781.326538,253.238327 
	C781.547546,253.233597 781.768494,253.228882 781.989502,253.224152 
	C781.989502,264.649445 781.989502,276.074707 781.989380,288.000000 
z"/>
<path fill="#333E49" opacity="1.000000" stroke="none" 
	d="
M776.010132,355.544769 
	C775.809265,349.209595 775.608521,342.404327 775.700562,335.303772 
	C775.998962,341.697205 776.004639,348.385925 776.010132,355.544769 
z"/>
<path fill="#333E49" opacity="1.000000" stroke="none" 
	d="
M775.995483,262.525635 
	C775.801086,257.852631 775.609009,252.713669 775.713440,247.279617 
	C776.005859,252.009567 776.001831,257.034607 775.995483,262.525635 
z"/>
<path fill="#1A2739" opacity="1.000000" stroke="none" 
	d="
M1088.000000,305.987030 
	C1093.877197,305.783234 1099.818115,304.969788 1105.610840,305.574799 
	C1109.989990,306.032227 1112.307495,311.687927 1111.156006,315.996887 
	C1109.031738,323.946289 1107.584839,331.774719 1110.029297,340.160797 
	C1112.748291,349.487854 1109.077881,354.936615 1100.222656,359.157166 
	C1084.337036,366.728516 1067.638794,368.199951 1050.316650,368.228210 
	C1035.828247,368.251831 1023.237183,364.023102 1012.825623,354.645203 
	C1005.482117,348.030701 998.683472,340.340027 993.410706,332.010010 
	C985.801575,319.989075 984.629883,306.120026 986.447205,291.710693 
	C993.376343,291.370026 992.608826,284.457214 995.080750,280.317017 
	C997.670349,275.979797 999.179443,270.857483 1000.422729,265.893433 
	C1001.847412,260.205048 1004.478516,256.107056 1009.897339,253.329330 
	C1016.919189,249.729889 1023.536682,245.341476 1031.129395,241.151840 
	C1039.956909,241.006821 1047.983398,241.002625 1056.009888,240.998444 
	C1076.398926,235.784561 1093.253906,243.223999 1110.498291,255.615509 
	C1105.147339,260.707733 1100.931885,265.044495 1096.307007,268.888672 
	C1095.172607,269.831451 1092.562500,269.618286 1090.882446,269.108215 
	C1089.244385,268.610992 1088.035889,266.853455 1086.449829,266.000519 
	C1082.470581,263.860474 1078.568726,261.268005 1074.295776,260.058197 
	C1068.595337,258.444153 1062.574463,257.957123 1056.688599,257.002686 
	C1047.021729,255.435135 1039.162231,260.273773 1031.766357,265.081116 
	C1026.097900,268.765717 1021.081909,273.800690 1016.687317,279.004822 
	C1011.851807,284.731049 1009.707825,291.509064 1011.864380,299.415405 
	C1013.835693,306.642120 1013.925842,314.460205 1016.440063,321.443390 
	C1020.938232,333.937439 1031.138184,340.778381 1042.986694,346.055542 
	C1053.078857,350.550476 1062.524170,349.964172 1072.543579,346.411072 
	C1078.324829,344.360931 1083.995361,342.691772 1087.284668,336.049866 
	C1087.758545,325.612244 1087.879272,315.799652 1088.000000,305.987030 
z"/>
<path fill="#525C67" opacity="1.000000" stroke="none" 
	d="
M1087.691772,306.271545 
	C1087.879272,315.799652 1087.758545,325.612244 1087.322754,335.696930 
	C1087.132935,326.164703 1087.258301,316.360382 1087.691772,306.271545 
z"/>
<path fill="#444F5C" opacity="1.000000" stroke="none" 
	d="
M1055.719116,240.696579 
	C1047.983398,241.002625 1039.956909,241.006821 1031.460938,241.005707 
	C1035.680908,240.664642 1040.365845,240.186447 1045.061157,240.040344 
	C1048.509888,239.933044 1051.972168,240.260834 1055.719116,240.696579 
z"/>
<path fill="#1A2839" opacity="1.000000" stroke="none" 
	d="
M212.109619,63.211990 
	C220.337326,64.525078 228.156967,65.792656 235.991852,66.957504 
	C237.285812,67.149872 238.768433,67.225250 239.957443,66.790337 
	C249.902679,63.152512 257.900238,68.877182 266.320526,72.275200 
	C269.261841,73.462158 269.909119,76.395660 268.353271,79.025818 
	C266.429230,82.278397 264.134277,85.379051 261.563538,88.139198 
	C260.822052,88.935280 258.272797,88.910423 257.075043,88.275658 
	C250.395660,84.735901 243.317459,83.092422 235.887100,81.749908 
	C226.622177,80.075928 217.658966,81.140236 208.580627,82.112671 
	C207.502335,82.228180 206.041290,82.753395 205.532852,83.570839 
	C201.748413,89.655396 197.155457,95.691399 199.243393,103.442299 
	C199.786896,105.459969 202.175766,107.701988 204.229721,108.470055 
	C214.732529,112.397491 225.406372,115.866768 236.014053,119.514740 
	C245.699371,122.845497 255.493378,125.900444 265.027893,129.619431 
	C277.039124,134.304489 283.144135,151.209915 277.403595,165.606400 
	C273.158325,176.253021 266.548004,184.017075 256.645874,189.244995 
	C255.093018,190.064865 253.216629,190.492462 251.449478,190.650711 
	C238.367615,191.822037 225.185196,194.339996 212.213547,193.537704 
	C200.583710,192.818405 188.626999,190.496094 177.977280,184.519028 
	C171.322052,180.783844 170.961609,180.074387 174.297592,173.401978 
	C179.908203,162.180038 179.816345,162.382431 191.330292,167.608337 
	C202.885483,172.852966 214.844299,177.143921 227.824631,175.904266 
	C235.966599,175.126694 244.254715,174.018250 249.422562,166.198120 
	C250.220917,164.990005 251.481354,163.992035 252.716827,163.186310 
	C256.081451,160.992157 255.814575,158.004990 253.821014,155.499710 
	C249.460922,150.020508 245.878952,143.325211 237.540848,142.848648 
	C236.976120,142.816376 236.225464,142.324936 235.931793,141.828064 
	C232.414597,135.877075 226.641388,137.282898 221.193527,136.925018 
	C205.723587,135.908752 191.589783,131.035797 180.106964,120.309395 
	C177.862839,118.213120 176.664886,114.397202 176.147461,111.186981 
	C175.282272,105.819107 175.502869,100.286392 174.997849,94.848000 
	C174.177475,86.013481 177.665344,79.102791 185.646561,75.218658 
	C194.255081,71.029236 203.013565,67.147896 212.109619,63.211990 
z"/>
<path fill="#142438" opacity="1.000000" stroke="none" 
	d="
M545.029968,81.916855 
	C545.025208,77.524086 544.860046,73.121727 545.121582,68.744873 
	C545.192261,67.562851 546.555908,66.458092 548.131714,65.161598 
	C582.952087,64.999886 616.966919,64.994438 650.981689,64.988991 
	C659.294678,69.498169 660.387756,78.051880 652.691589,83.778976 
	C640.359680,84.024048 628.686829,84.016930 617.014038,84.009819 
	C612.327393,85.903145 613.051147,90.183510 613.078003,93.800667 
	C613.292053,122.546364 613.836060,151.290192 613.942566,180.035843 
	C613.992249,193.448746 613.070312,192.084518 600.933228,192.876389 
	C589.868286,193.598297 587.955994,195.199341 587.986816,180.156616 
	C588.047607,150.538528 587.899414,120.919487 588.108398,91.302750 
	C588.144043,86.249924 586.317322,83.471085 580.826660,82.138176 
	C568.358643,81.978447 556.694275,81.947647 545.029968,81.916855 
z"/>
<path fill="#525C67" opacity="1.000000" stroke="none" 
	d="
M650.697388,64.684708 
	C616.966919,64.994438 582.952087,64.999886 548.468628,65.002090 
	C549.223450,64.669983 550.446533,64.055824 551.670471,64.053909 
	C583.937683,64.003349 616.205017,64.013992 648.472290,64.033142 
	C649.119263,64.033524 649.766174,64.259621 650.697388,64.684708 
z"/>
<path fill="#525C67" opacity="1.000000" stroke="none" 
	d="
M544.901978,82.205055 
	C556.694275,81.947647 568.358643,81.978447 580.486023,82.019943 
	C580.225647,82.344910 579.499634,82.938095 578.779053,82.931686 
	C567.443604,82.831100 556.108826,82.653313 544.901978,82.205055 
z"/>
<path fill="#525C67" opacity="1.000000" stroke="none" 
	d="
M617.298462,84.314728 
	C628.686829,84.016930 640.359680,84.024048 652.495239,84.069351 
	C650.564819,84.399666 648.171265,84.942963 645.778442,84.939613 
	C636.379822,84.926430 626.981323,84.741066 617.298462,84.314728 
z"/>
<path fill="#142438" opacity="1.000000" stroke="none" 
	d="
M485.930573,64.955963 
	C487.786987,67.654350 490.057343,70.157372 491.436981,73.080765 
	C508.928528,110.143532 526.326355,147.250687 543.650085,184.392258 
	C546.183838,189.824539 543.992737,192.926834 537.969299,193.010056 
	C533.646240,193.069794 529.316101,192.886581 524.999329,193.062607 
	C521.259949,193.215088 519.147278,191.485977 517.921936,188.123749 
	C515.765869,182.207870 513.692993,176.247513 511.168457,170.488510 
	C510.381195,168.692627 508.250122,167.485855 506.284973,165.601288 
	C504.508453,164.791183 503.182617,164.044708 501.853699,164.039139 
	C483.606171,163.962479 465.358185,163.965744 447.110596,164.032990 
	C445.735046,164.038055 444.361877,164.677856 442.992004,165.005371 
	C442.996399,164.988129 443.030487,164.979156 442.786377,165.058716 
	C442.353729,165.411545 442.165161,165.684830 441.976624,165.958099 
	C441.976624,165.958099 442.001434,165.995270 441.640930,165.964478 
	C440.817535,165.934311 440.354675,165.934921 439.891815,165.935532 
	C438.270477,168.045105 436.322113,169.981339 435.093506,172.299103 
	C432.229736,177.701706 429.781128,183.323105 426.996002,188.769775 
	C426.444550,189.848175 425.205902,191.199326 424.170624,191.304260 
	C417.704132,191.959656 411.203552,192.621490 404.718231,192.584808 
	C402.002319,192.569443 400.671967,190.736923 402.250000,187.319138 
	C418.302551,152.551453 434.160095,117.693748 450.078369,82.864052 
	C452.078094,78.488686 453.941559,74.037376 456.213226,69.806557 
	C457.166290,68.031532 459.018433,66.739243 461.238831,65.105751 
	C469.987396,64.974663 477.958984,64.965317 485.930573,64.955963 
M454.582153,146.651718 
	C467.078644,146.772842 479.575134,146.893982 492.584961,146.751602 
	C492.059418,145.521606 491.533905,144.291611 491.702209,142.756226 
	C492.748749,142.590317 493.795288,142.424408 495.151367,142.209442 
	C487.842285,125.839813 480.739044,109.931206 473.635803,94.022598 
	C473.135406,93.886192 472.634979,93.749794 472.134583,93.613396 
	C465.502960,109.498932 458.871368,125.384460 452.039276,141.886932 
	C452.709503,143.262100 453.379730,144.637283 454.582153,146.651718 
z"/>
<path fill="#444F5C" opacity="1.000000" stroke="none" 
	d="
M442.987579,165.022614 
	C444.361877,164.677856 445.735046,164.038055 447.110596,164.032990 
	C465.358185,163.965744 483.606171,163.962479 501.853699,164.039139 
	C503.182617,164.044708 504.508453,164.791183 505.904022,165.596252 
	C505.180420,165.742126 504.388489,165.484940 502.830750,165.111359 
	C482.372437,165.004196 462.680023,165.013412 442.987579,165.022614 
z"/>
<path fill="#121D28" opacity="1.000000" stroke="none" 
	d="
M442.992004,165.005371 
	C462.680023,165.013412 482.372437,165.004196 502.533813,164.996613 
	C503.014771,165.186066 503.026733,165.373901 503.021088,165.844513 
	C483.653717,166.090576 464.303925,166.053864 444.487732,166.028366 
	C444.021301,166.039581 443.620209,165.979996 443.351654,165.727875 
	C443.083099,165.475769 443.030487,164.979156 443.030487,164.979156 
	C443.030487,164.979156 442.996399,164.988129 442.992004,165.005371 
z"/>
<path fill="#525C67" opacity="1.000000" stroke="none" 
	d="
M485.647156,64.659813 
	C477.958984,64.965317 469.987396,64.974663 461.558533,64.959305 
	C469.188721,64.744286 477.276245,64.553970 485.647156,64.659813 
z"/>
<path fill="#444F5C" opacity="1.000000" stroke="none" 
	d="
M440.041687,166.181931 
	C440.354675,165.934921 440.817535,165.934311 441.626251,165.949554 
	C441.378571,166.119705 440.785065,166.274017 440.041687,166.181931 
z"/>
<path fill="#444F5C" opacity="1.000000" stroke="none" 
	d="
M442.786377,165.058716 
	C443.030487,164.979156 443.083099,165.475769 443.149231,165.716782 
	C443.008881,165.970306 442.802399,165.982819 442.286285,165.976715 
	C442.165161,165.684830 442.353729,165.411545 442.786377,165.058716 
z"/>
<path fill="#142438" opacity="1.000000" stroke="none" 
	d="
M620.000000,297.000000 
	C620.000000,317.636749 620.008057,337.773529 619.995728,357.910278 
	C619.991272,365.171082 619.157959,365.999939 612.077026,366.002045 
	C607.916565,366.003265 603.754517,365.932129 599.596069,366.023102 
	C595.922119,366.103516 593.985596,364.611694 593.987976,360.759491 
	C594.011902,322.483002 594.004822,284.206512 594.001343,245.930023 
	C594.001038,242.476913 595.419739,240.715561 599.151672,240.953430 
	C602.632324,241.175308 606.138489,240.973801 609.632996,241.005981 
	C616.304321,241.067444 619.977661,244.779877 619.990906,251.566727 
	C620.020264,266.544434 620.000000,281.522247 620.000000,297.000000 
z"/>
<path fill="#737C82" opacity="1.000000" stroke="none" 
	d="
M732.453613,260.142700 
	C730.790161,260.333710 728.706299,260.481110 726.360718,260.383942 
	C728.077148,260.125946 730.055176,260.112488 732.453613,260.142700 
z"/>
<path fill="#F4F6F7" opacity="1.000000" stroke="none" 
	d="
M452.239746,141.269989 
	C458.871368,125.384460 465.502960,109.498932 472.134583,93.613396 
	C472.634979,93.749794 473.135406,93.886192 473.635803,94.022598 
	C480.739044,109.931206 487.842285,125.839813 495.151367,142.209442 
	C493.795288,142.424408 492.748749,142.590317 490.937500,142.843933 
	C479.303894,142.804001 468.433746,142.730988 457.567200,142.494217 
	C455.783325,142.455338 454.015198,141.696243 452.239746,141.269989 
z"/>
<path fill="#212B34" opacity="1.000000" stroke="none" 
	d="
M452.139526,141.578461 
	C454.015198,141.696243 455.783325,142.455338 457.567200,142.494217 
	C468.433746,142.730988 479.303894,142.804001 490.590576,142.996628 
	C491.533905,144.291611 492.059418,145.521606 492.030151,146.579865 
	C479.000183,146.276230 466.525085,146.144348 454.049957,146.012466 
	C453.379730,144.637283 452.709503,143.262100 452.139526,141.578461 
z"/>
<path fill="#444F5C" opacity="1.000000" stroke="none" 
	d="
M454.316040,146.332092 
	C466.525085,146.144348 479.000183,146.276230 491.773468,146.711609 
	C479.575134,146.893982 467.078644,146.772842 454.316040,146.332092 
z"/>
</svg>