<?xml version='1.0' encoding='utf-8'?>
<svg xmlns="http://www.w3.org/2000/svg" version="1.1" id="Layer_1" x="0px" y="0px" width="100%" viewBox="0 1050 1372 488" enable-background="new 0 0 1372 1538" xml:space="preserve">
  <path fill="#10263A" opacity="1.000000" stroke="none" d=" M425.045715,1302.904175   C426.308136,1305.518799 427.836945,1308.040527 428.787781,1310.763916   C433.417450,1324.024170 437.948608,1337.319580 442.402588,1350.640015   C445.372620,1359.522339 448.119904,1368.478638 451.036804,1377.379028   C452.336304,1381.344238 453.807953,1385.252930 455.625153,1390.383423   C457.668671,1384.459229 459.343353,1379.798462 460.884735,1375.093872   C463.811676,1366.160522 466.659119,1357.201172 469.545410,1348.254395   C472.358398,1339.534912 475.168976,1330.814575 478.009796,1322.104248   C478.307922,1321.190186 478.803192,1320.340454 479.839111,1319.329102   C481.685303,1319.434814 483.000916,1320.055420 484.076355,1319.770264   C484.751526,1319.591064 485.282501,1318.100952 485.504517,1317.114990   C486.408722,1313.099731 487.077911,1309.030884 488.009583,1305.022583   C488.817871,1301.545044 491.229523,1300.683228 494.630432,1300.935669   C498.607880,1301.230835 502.638550,1300.801147 506.617493,1301.086060   C508.673126,1301.233154 510.666809,1302.245972 512.673157,1302.862915   C511.437225,1306.933228 508.915710,1310.102539 512.796509,1312.988159   C510.653381,1320.042725 508.632324,1327.137451 506.332428,1334.140503   C504.086304,1340.979980 501.491882,1347.704224 499.165314,1354.518311   C496.075836,1363.566772 493.031036,1372.631714 490.090240,1381.729370   C486.952240,1391.437256 483.957092,1401.191162 480.900848,1410.925537   C478.820221,1417.552246 476.824951,1424.208252 474.574188,1430.776733   C474.232605,1431.773438 472.718414,1433.028809 471.730743,1433.042847   C460.450165,1433.202515 449.166473,1433.144287 438.031433,1433.144287   C428.339233,1403.663818 418.870911,1374.864502 409.402588,1346.065063   C408.955780,1346.151978 408.509003,1346.238770 408.062225,1346.325562   C405.704956,1353.427490 403.377441,1360.539307 400.983002,1367.628662   C397.889984,1376.786255 394.718048,1385.916992 391.628632,1395.075684   C389.385742,1401.724854 387.173157,1408.385132 385.038452,1415.069702   C383.475067,1419.965088 382.355774,1425.029541 380.410370,1429.760254   C379.773834,1431.308105 377.191498,1432.941406 375.447144,1433.000366   C366.133118,1433.315063 356.802368,1433.103638 347.478058,1433.165649   C344.835358,1433.183105 343.582031,1432.579346 342.841888,1429.515747   C341.173248,1422.609497 338.639160,1415.913086 336.479980,1409.124146   C333.249695,1398.967651 330.116669,1388.779297 326.790222,1378.654419   C324.856689,1372.769165 322.500458,1367.023193 320.557129,1361.140869   C317.214600,1351.023438 314.098419,1340.831299 310.787415,1330.703125   C308.280945,1323.036011 305.619110,1315.419556 303.447449,1307.291504   C304.493744,1305.043091 305.119049,1303.283691 305.928894,1301.004883   C311.819122,1301.004883 317.933563,1301.380737 323.978424,1300.893311   C329.406372,1300.455688 331.636017,1303.322266 333.084564,1307.697266   C335.379700,1314.629150 337.663055,1321.565063 340.061859,1328.833862   C340.828217,1327.275024 341.380188,1326.152100 341.932190,1325.029297   C345.004730,1334.222778 348.019287,1343.436279 351.166473,1352.604126   C354.203796,1361.451782 357.404999,1370.243164 360.475983,1379.079346   C361.445618,1381.869385 362.227600,1384.724487 363.095459,1387.549805   C363.556427,1387.549683 364.017426,1387.549561 364.478394,1387.549316   C366.311951,1382.225952 368.192657,1376.918213 369.967926,1371.575562   C372.594666,1363.670166 375.094940,1355.722656 377.743835,1347.824829   C380.800018,1338.712646 383.943634,1329.629639 387.078644,1320.544067   C389.492554,1313.548340 391.952118,1306.568359 394.739319,1299.792969   C395.177368,1300.783936 395.267426,1301.563110 395.202942,1301.005249   C400.937866,1301.005249 406.221283,1300.980957 411.504333,1301.012329   C416.503876,1301.041992 422.156036,1299.516846 424.675171,1306.272705   C424.798676,1305.149780 424.922180,1304.026978 425.045715,1302.904175  z" />
  <path fill="#10273A" opacity="1.000000" stroke="none" d=" M946.995239,1299.122559   C950.266846,1302.569336 953.710144,1305.870483 956.781189,1309.487549   C972.535217,1328.041870 988.206604,1346.666504 1003.874817,1365.293579   C1007.187256,1369.231567 1010.366028,1373.281982 1014.936462,1377.048584   C1014.936462,1375.563599 1014.936096,1374.078613 1014.936523,1372.593628   C1014.942932,1349.600098 1014.926758,1326.606323 1015.004150,1303.613037   C1015.009644,1301.980225 1015.701904,1300.349609 1016.525635,1299.203613   C1017.015442,1302.050293 1017.272461,1303.752441 1020.433228,1302.183838   C1022.109253,1301.352051 1024.206665,1301.105225 1026.122925,1301.068848   C1033.040161,1300.936890 1039.961182,1301.006226 1046.880859,1300.999512   C1046.938477,1329.130127 1047.006714,1357.260742 1047.049194,1385.391357   C1047.072754,1401.037109 1047.053467,1416.682861 1047.053467,1433.054932   C1038.064697,1433.054932 1029.112793,1433.585815 1020.296570,1432.725830   C1017.712158,1432.473633 1015.315369,1428.435303 1013.168579,1425.853027   C994.403381,1403.281006 975.717834,1380.642944 956.993408,1358.036987   C956.044067,1356.890991 954.954956,1355.860596 952.751709,1353.527954   C952.751709,1356.653320 952.750854,1358.331055 952.751831,1360.008789   C952.764893,1382.817505 952.795837,1405.626099 952.750427,1428.434692   C952.747559,1429.902344 952.155029,1431.369019 951.393188,1432.358643   C950.949524,1405.820923 950.949524,1379.760498 950.949524,1353.700195   C950.300598,1353.703857 949.651611,1353.707520 949.002686,1353.711182   C949.002686,1380.112793 949.002686,1406.514526 949.002686,1432.916138   C940.642273,1432.985840 932.281799,1433.055420 923.466553,1432.565063   C923.012573,1390.625244 923.012512,1349.245483 923.015564,1307.865601   C923.016052,1301.026123 923.022705,1301.024536 930.087708,1301.018066   C934.408508,1301.014160 938.737244,1301.162598 943.045349,1300.927856   C944.390747,1300.854492 945.680176,1299.753296 946.995239,1299.122559  z" />
  <path fill="#0F2538" opacity="1.000000" stroke="none" d=" M1165.104248,1182.920410   C1168.198486,1180.024292 1171.476318,1177.298828 1174.356445,1174.203369   C1189.487061,1157.941528 1204.490479,1141.561401 1219.638062,1125.315430   C1220.709473,1124.166260 1222.574707,1123.144653 1224.088745,1123.119019   C1234.916992,1122.935669 1245.750000,1123.019409 1256.581421,1123.047729   C1257.184204,1123.049316 1257.786377,1123.313232 1258.948730,1123.586670   C1251.955444,1131.006104 1245.281494,1138.046631 1238.652344,1145.128906   C1227.917969,1156.597168 1217.240479,1168.118530 1206.470825,1179.553345   C1204.489014,1181.657471 1204.000000,1183.064941 1206.129639,1185.749023   C1217.994507,1200.703857 1229.513062,1215.932739 1241.251953,1230.988403   C1247.622070,1239.158325 1254.221069,1247.149414 1260.633789,1255.286621   C1261.259644,1256.080933 1261.299805,1257.336792 1261.763916,1258.886230   C1249.576782,1258.886230 1237.777710,1258.909058 1225.979126,1258.838623   C1225.125977,1258.833496 1223.983154,1258.384644 1223.469238,1257.744995   C1213.491577,1245.326538 1203.573853,1232.859985 1193.677124,1220.376953   C1190.757080,1216.693726 1187.884033,1212.970215 1185.091187,1209.190063   C1182.760864,1206.036011 1180.789185,1206.013306 1178.227173,1209.122925   C1173.969116,1214.291016 1169.386841,1219.192139 1164.477295,1224.654663   C1163.685303,1226.977295 1163.096191,1228.847900 1163.073975,1230.725220   C1162.972290,1239.325928 1163.029297,1247.928589 1163.029297,1256.700317   C1152.728027,1256.700317 1143.043579,1256.700317 1133.269775,1256.700317   C1133.136597,1255.695312 1132.976807,1255.054443 1132.977173,1254.413574   C1133.001831,1210.668579 1133.039307,1166.923584 1133.075684,1123.178589   C1142.719116,1123.119995 1152.362427,1123.061279 1162.439209,1123.558716   C1162.923584,1126.269409 1163.016968,1128.423950 1163.019165,1130.578613   C1163.035522,1146.500000 1162.977295,1162.421753 1163.127686,1178.341797   C1163.142090,1179.874023 1164.415405,1181.394409 1165.104248,1182.920410  z" />
  <path fill="#0F2539" opacity="1.000000" stroke="none" d=" M626.028320,1389.005005   C630.197937,1394.994263 634.375305,1400.978271 638.535156,1406.974243   C643.885010,1414.685547 649.237305,1422.395264 654.530884,1430.145020   C654.950867,1430.759888 654.921997,1431.681396 655.232178,1433.025269   C643.646301,1433.025269 632.418945,1433.052734 621.192566,1432.961426   C620.468262,1432.955566 619.527100,1432.188721 619.064697,1431.515991   C611.716064,1420.826294 604.444153,1410.083984 597.111572,1399.383179   C596.089233,1397.891113 594.838806,1396.555298 593.247192,1394.644897   C591.286011,1393.761719 589.778625,1393.089478 588.255859,1393.052490   C582.761658,1392.919312 577.262268,1392.998657 571.764832,1393.000366   C565.290405,1393.002319 559.943359,1399.871094 561.012146,1406.226074   C561.981323,1411.988159 562.674866,1417.843140 562.798950,1423.671875   C562.835571,1425.391724 560.861450,1428.200195 559.230835,1428.729370   C552.012268,1431.072632 544.638855,1431.161133 536.998291,1427.962036   C536.998291,1426.521851 536.998291,1424.886475 536.998291,1423.251221   C536.998169,1385.435425 536.995728,1347.619751 537.000183,1309.803955   C537.000977,1303.405762 537.370789,1303.011719 543.783447,1303.006714   C566.048157,1302.989258 588.315186,1302.837280 610.575684,1303.143921   C614.789978,1303.202026 619.342712,1304.420044 623.089783,1306.358398   C628.098938,1308.949707 632.466797,1312.776855 637.123047,1316.054932   C645.158508,1321.712158 648.287903,1329.951782 648.932556,1339.275269   C649.310852,1344.746582 649.434265,1350.308838 648.888245,1355.751587   C648.238098,1362.232788 646.858337,1368.777832 641.552185,1373.320923   C636.727173,1377.452148 631.488159,1381.098511 626.627869,1385.191528   C625.884644,1385.817505 626.201660,1387.702393 626.028320,1389.005005  M607.940857,1327.343506   C593.890991,1322.835449 579.592041,1325.860352 565.489868,1324.811401   C565.489868,1340.052368 565.489868,1354.167847 565.489868,1368.596191   C566.895630,1368.794922 568.171143,1369.129395 569.447083,1369.130981   C579.104736,1369.142944 588.762573,1369.105469 598.419983,1369.039673   C599.910095,1369.029541 601.603210,1369.211792 602.854126,1368.596680   C609.944946,1365.110107 617.429504,1361.677856 618.869629,1352.720581   C620.518188,1342.466675 619.054626,1333.178589 607.940857,1327.343506  z" />
  <path fill="#0E2437" opacity="1.000000" stroke="none" d=" M976.700195,1149.235840   C962.923584,1149.235840 949.146912,1149.235840 935.160645,1149.235840   C935.160645,1140.400757 935.160645,1131.996094 935.160645,1123.264771   C936.827637,1123.188354 938.275085,1123.065063 939.722656,1123.063843   C976.189026,1123.034302 1012.655701,1123.078491 1049.121460,1122.916138   C1053.324219,1122.897461 1055.171021,1123.743652 1054.796631,1128.392944   C1054.357056,1133.853271 1054.435547,1139.388672 1054.751221,1144.864746   C1054.966553,1148.598389 1053.370483,1149.386719 1050.115479,1149.331299   C1042.125000,1149.195312 1034.130981,1149.276489 1025.218994,1149.091309   C1021.141724,1148.891846 1017.962158,1149.096436 1014.830688,1148.797363   C1010.339600,1148.368652 1008.884583,1149.896484 1008.906616,1154.607544   C1009.065918,1188.687134 1008.921936,1222.768311 1008.419617,1256.913574   C998.342468,1256.945190 988.719727,1256.912231 979.051025,1256.420166   C978.993530,1222.038086 979.013916,1188.114746 978.874084,1154.192139   C978.867310,1152.537109 977.456970,1150.887817 976.700195,1149.235840  z" />
  <path fill="#0F2539" opacity="1.000000" stroke="none" d=" M798.917786,1430.997559   C798.343018,1431.696899 797.775818,1432.998535 797.192383,1433.005737   C787.246155,1433.130737 777.298035,1433.095459 767.014160,1433.095459   C767.014160,1396.951538 767.014160,1361.225952 767.014160,1324.982666   C752.445374,1324.982666 738.206970,1324.982666 722.733643,1324.982666   C723.205078,1315.887939 723.648132,1307.339966 724.544434,1299.332764   C724.997559,1307.451416 724.997559,1315.029297 724.997559,1322.500488   C740.037537,1322.500488 754.164001,1322.500488 768.290466,1322.500488   C766.886475,1321.233276 765.379211,1321.025513 763.871277,1321.020386   C754.882751,1320.989258 745.894043,1321.005005 736.905396,1321.005005   C726.990723,1321.005005 727.562256,1320.962524 726.822449,1310.980347   C726.224670,1302.915405 731.229492,1301.533081 737.113708,1301.027344   C738.270386,1300.927856 739.442871,1301.010010 740.608032,1301.009888   C769.737915,1301.006470 798.867737,1301.003052 827.997620,1301.000244   C830.494446,1301.000122 832.996033,1301.100098 835.486816,1300.978760   C838.021545,1300.855347 839.117981,1301.815308 839.043518,1304.440308   C838.916138,1308.931030 839.118896,1313.432983 838.919189,1317.918457   C838.873352,1318.948242 837.771606,1320.792969 837.130981,1320.803955   C828.486084,1320.951050 819.836914,1320.831787 811.188660,1320.796387   C806.611145,1320.777588 802.033508,1320.792969 797.455933,1320.792969   C797.442810,1321.308105 797.429688,1321.823364 797.416565,1322.338501   C797.977661,1322.584229 798.538818,1322.829834 799.088562,1323.438721   C799.098999,1324.286133 799.120728,1324.770630 799.142456,1325.255005   C799.136353,1325.654541 799.130249,1326.053955 798.628662,1326.828613   C797.755737,1328.384888 797.050842,1329.565430 797.048706,1330.747437   C796.991211,1362.852539 796.983032,1394.957886 797.088623,1427.062744   C797.092957,1428.376343 798.281128,1429.686035 798.917786,1430.997559  z" />
  <path fill="#0B2134" opacity="1.000000" stroke="none" d=" M1099.052979,1123.115845   C1099.468262,1123.093262 1099.883667,1123.070557 1100.554321,1123.603027   C1100.864624,1124.988525 1100.967407,1125.819214 1100.967896,1126.649780   C1100.994141,1168.950439 1101.015137,1211.250977 1101.009155,1253.551636   C1101.009033,1254.649658 1100.700195,1255.747559 1100.542847,1256.794922   C1090.639648,1256.794922 1081.060303,1256.794922 1071.271729,1256.794922   C1071.271729,1212.773071 1071.271729,1169.074829 1071.271729,1124.820679   C1079.193848,1124.820679 1086.809204,1124.913940 1094.418579,1124.743286   C1095.974731,1124.708496 1097.508789,1123.684204 1099.052979,1123.115845  z" />
  <path fill="#0E2437" opacity="1.000000" stroke="none" d=" M761.173645,1256.948975   C761.104126,1256.522217 761.034607,1256.095337 761.396851,1255.216309   C762.183167,1253.069092 762.842773,1251.374756 762.847107,1249.678833   C762.925049,1219.190796 762.925720,1188.702637 762.938049,1158.214478   C762.942017,1148.551514 762.822998,1138.886108 763.045532,1129.228394   C763.078918,1127.780762 764.639709,1125.161133 765.565552,1125.128662   C774.490173,1124.815796 783.430176,1124.941040 792.267578,1124.941040   C792.569641,1126.015137 792.815247,1126.481445 792.815674,1126.947998   C792.851685,1168.598267 792.862854,1210.248413 792.897095,1251.898682   C792.900330,1255.827881 790.741211,1257.049683 787.161987,1257.013672   C778.499878,1256.926514 769.836487,1256.962646 761.173645,1256.948975  z" />
  <path fill="#182630" opacity="1.000000" stroke="none" d=" M861.258240,1148.942627   C850.281311,1152.841431 849.619934,1157.534790 850.711731,1163.893311   C851.796997,1170.213379 857.427979,1171.458740 862.065796,1172.809692   C875.188416,1176.632324 888.632629,1179.361084 901.726868,1183.268921   C913.615906,1186.817383 924.244751,1192.965332 928.596924,1205.444336   C934.344238,1221.924072 928.555969,1240.766968 912.453003,1250.879272   C905.352966,1255.337891 897.570374,1258.444946 889.055786,1259.100586   C880.835632,1259.733521 872.525024,1261.246094 864.396790,1260.594116   C847.125000,1259.209106 830.157288,1255.969238 815.812683,1245.103638   C814.888428,1244.403564 813.956482,1242.293091 814.352051,1241.493530   C817.931641,1234.256836 821.806335,1227.166138 825.552795,1220.111450   C832.721191,1223.325684 839.783936,1226.420166 846.784241,1229.650146   C854.919067,1233.403687 863.638611,1234.105225 872.324402,1233.949707   C877.796204,1233.851807 883.311279,1232.501831 888.676819,1231.183472   C893.891907,1229.902344 896.773926,1226.333008 897.028503,1220.723755   C897.303711,1214.658325 893.125732,1211.725464 888.619568,1210.128296   C880.410339,1207.218872 871.828308,1205.378906 863.459412,1202.898560   C849.564392,1198.780151 834.534241,1197.052612 824.303528,1184.953735   C816.253601,1175.433716 815.039490,1164.689453 818.567566,1153.027100   C824.189209,1134.444092 838.006775,1125.700073 855.975037,1123.042480   C866.701172,1121.455933 877.766113,1120.855713 888.577148,1121.504272   C899.953125,1122.187012 910.909424,1125.936890 920.971924,1131.533203   C922.198303,1132.215332 923.205566,1135.352173 922.689209,1136.751709   C920.414185,1142.918091 917.702393,1148.945068 914.740784,1154.816650   C914.212585,1155.863892 911.225220,1156.865601 910.266479,1156.319824   C898.140686,1149.415771 885.040161,1146.804932 871.286438,1147.115601   C868.066223,1147.188354 864.868774,1148.266357 861.258240,1148.942627  M847.360901,1170.592407   C847.240906,1166.107666 847.047241,1161.623291 847.024292,1157.138062   C847.006226,1153.607178 852.833801,1145.916260 856.188904,1145.155273   C859.996033,1144.291870 863.843140,1143.332520 867.716003,1143.081787   C879.604431,1142.312256 891.218628,1142.700928 902.024902,1149.154663   C909.260071,1153.475708 913.563293,1151.973633 916.199951,1144.392944   C917.225769,1141.443604 920.954956,1137.729004 916.965149,1134.234131   C915.550659,1132.995117 913.643433,1132.172485 911.825378,1131.569214   C907.356812,1130.086426 902.380127,1127.015503 898.399475,1127.951050   C893.120361,1129.191895 888.714417,1128.739380 883.975830,1127.155029   C881.808716,1126.430542 879.603516,1125.036987 877.469727,1125.134277   C869.281311,1125.507812 860.871643,1123.249146 852.929077,1126.962524   C851.327332,1127.711426 849.674133,1128.768555 847.998230,1128.863647   C842.566772,1129.171631 838.688965,1131.327759 836.569275,1136.549683   C836.151733,1137.578369 834.706055,1138.429199 833.547119,1138.877563   C826.920288,1141.441895 821.071716,1149.593994 820.999878,1156.603760   C820.876892,1168.605225 820.735840,1168.700806 827.334106,1178.439453   C830.200134,1182.669312 833.309387,1186.982056 837.183716,1190.204346   C840.400085,1192.879395 844.830444,1194.188477 848.856445,1195.760620   C851.233582,1196.688843 853.887512,1196.885132 856.387512,1197.525879   C863.386475,1199.319092 870.452576,1200.910034 877.336548,1203.075439   C884.170532,1205.225098 891.596252,1205.906738 896.970581,1211.816284   C903.140076,1218.600220 901.893127,1228.048218 894.020264,1232.774048   C886.291809,1237.413330 877.447144,1237.981689 869.093018,1238.588867   C862.252625,1239.085938 854.950256,1236.557373 848.221924,1234.279419   C842.148682,1232.223022 836.599365,1228.640015 830.772034,1225.827271   C828.189392,1224.580811 825.976868,1224.005371 824.645386,1227.877808   C823.494751,1231.224365 821.302612,1234.204712 819.657410,1237.391602   C818.069092,1240.468384 818.992737,1243.309326 821.897827,1244.541138   C828.763977,1247.452271 835.759949,1250.138916 842.880981,1252.342407   C849.190369,1254.294556 855.720093,1256.614868 862.187012,1256.723633   C871.806824,1256.885742 881.421631,1257.854736 891.233459,1255.427368   C898.761169,1253.565186 905.696045,1251.781738 912.296448,1247.395874   C921.508301,1241.274414 926.478455,1233.084473 926.842896,1222.386841   C927.039978,1216.598999 926.546021,1210.433472 924.651733,1205.039551   C923.114502,1200.662720 919.792725,1195.955566 915.923889,1193.530762   C903.310120,1185.625000 888.616760,1182.924683 874.448914,1179.111206   C867.424011,1177.220215 860.117065,1176.398315 853.022644,1174.731323   C851.098206,1174.279053 849.482788,1172.511719 847.360901,1170.592407  z" />
  <path fill="#142532" opacity="1.000000" stroke="none" d=" M414.934387,1226.000000   C414.930023,1202.171387 414.798981,1178.841431 415.025604,1155.515015   C415.071869,1150.752808 413.899445,1149.009766 408.903351,1149.177612   C398.250610,1149.536133 387.577911,1149.318970 376.913483,1149.296997   C375.129181,1149.293335 373.345245,1149.084595 371.349792,1148.957153   C371.349792,1140.345093 371.349792,1132.092041 371.349792,1123.420898   C411.133362,1123.420898 450.696075,1123.420898 490.632935,1123.420898   C490.632935,1131.734009 490.632935,1140.136108 490.632935,1149.270386   C485.163208,1149.270386 479.578491,1149.273193 473.993774,1149.269531   C466.995239,1149.265015 459.991730,1149.411987 453.000061,1149.188965   C448.806763,1149.055176 447.173859,1150.402466 447.193207,1154.854248   C447.334595,1187.346924 447.250916,1219.840576 447.238525,1252.333984   C447.237762,1254.297852 447.238434,1256.261719 447.238434,1258.551025   C436.450470,1258.551025 426.186829,1258.551025 414.934113,1258.551025   C414.934113,1247.966919 414.934113,1237.233521 414.934387,1226.000000  M447.473999,1145.364624   C452.169861,1144.577026 456.862823,1143.177002 461.562286,1143.154541   C467.642822,1143.125732 473.759613,1143.981934 479.803284,1144.855103   C485.638428,1145.698120 486.971008,1144.800415 486.999329,1138.881470   C487.009705,1136.714966 486.752502,1134.513428 487.051666,1132.389038   C487.698730,1127.794678 485.666931,1126.884766 481.413208,1126.908691   C451.082581,1127.079834 420.750488,1127.000000 390.418884,1127.000244   C387.085754,1127.000366 383.619629,1126.447876 380.466919,1127.202637   C378.415558,1127.693848 375.261444,1130.144653 375.313171,1131.622437   C375.468170,1136.049316 372.459625,1141.451538 378.012421,1144.796265   C378.276428,1144.955200 378.665070,1144.984253 378.986664,1144.959106   C386.303070,1144.386230 393.609802,1143.603638 400.936829,1143.284180   C405.351624,1143.091675 410.240723,1142.502686 414.135681,1144.053345   C421.783051,1147.098145 423.832031,1155.042114 420.241486,1162.802856   C419.605621,1164.177246 419.251984,1165.886230 419.401062,1167.377319   C419.705994,1170.427856 420.821503,1173.422729 420.922546,1176.463257   C421.160431,1183.621582 420.998749,1190.793213 420.998749,1197.959473   C420.998749,1205.125732 421.721100,1212.387085 420.794098,1219.431274   C419.881104,1226.369141 421.043701,1233.086914 421.002441,1239.901245   C420.982269,1243.234253 420.757538,1246.593506 421.106995,1249.889648   C421.277618,1251.498901 422.164246,1253.523438 423.405762,1254.425903   C426.023010,1256.328247 437.416840,1254.674194 439.948822,1252.588745   C443.540009,1249.630981 444.885223,1245.597290 444.937592,1241.264771   C445.101776,1227.685791 445.055908,1214.103027 444.954041,1200.522949   C444.929352,1197.231445 443.956177,1193.919922 444.142670,1190.659058   C444.776276,1179.580078 446.589874,1168.466553 439.788940,1158.327637   C437.714722,1155.235474 439.300415,1152.182495 441.747345,1149.822388   C443.291260,1148.333252 445.110931,1147.129883 447.473999,1145.364624  z" />
  <path fill="#24333F" opacity="1.000000" stroke="none" d=" M653.999146,1149.859009   C644.101074,1149.856689 634.703308,1149.856689 625.239197,1149.856689   C625.239197,1140.265503 625.239197,1132.111328 625.239197,1123.331299   C627.063049,1123.212402 628.812073,1122.999878 630.561218,1122.998779   C667.393005,1122.974487 704.225098,1123.049805 741.056030,1122.872070   C745.608582,1122.850098 746.933899,1124.416992 746.713623,1128.675781   C746.447083,1133.828735 746.393860,1139.020508 746.708557,1144.167236   C746.969788,1148.437134 745.082642,1149.696167 741.205322,1149.662231   C730.373657,1149.567261 719.540588,1149.611450 708.708191,1149.638306   C706.917603,1149.642822 705.127625,1149.836914 702.823608,1149.973877   C702.823608,1186.332642 702.823608,1222.251587 702.823608,1258.817627   C692.015137,1258.817627 681.740356,1258.910522 671.475220,1258.637817   C670.672546,1258.616577 669.307251,1256.057373 669.273865,1254.652344   C669.060242,1245.657593 669.138428,1236.655640 669.134705,1227.656128   C669.124878,1203.657104 669.122009,1179.658203 669.116394,1155.659180   C669.116028,1154.015869 669.116333,1152.372437 669.116333,1149.861328   C663.994568,1149.861328 659.247009,1149.861328 653.999146,1149.859009  M690.357300,1255.024414   C699.026123,1255.011475 699.027649,1255.011475 699.028137,1246.594360   C699.029968,1215.286987 699.137512,1183.979004 698.917908,1152.673218   C698.884583,1147.925293 700.363892,1146.782471 704.834045,1146.933472   C714.148926,1147.248413 723.504211,1146.625366 732.801086,1147.141235   C741.441650,1147.620605 743.758545,1143.466553 743.050964,1136.135498   C742.408569,1129.478638 739.803345,1126.970947 733.191528,1126.970825   C711.209778,1126.970459 689.228088,1126.970703 667.246338,1126.971069   C655.922424,1126.971313 644.596619,1126.877319 633.276794,1127.092041   C631.835388,1127.119263 629.282349,1128.660400 629.193359,1129.671753   C628.763245,1134.560181 628.999512,1139.507202 628.999512,1145.024414   C640.766846,1145.024414 651.852478,1145.022339 662.938049,1145.025024   C670.631836,1145.026978 672.969116,1147.355347 672.970154,1155.055298   C672.974426,1186.695679 673.029785,1218.336304 672.894836,1249.976074   C672.878357,1253.828003 673.829224,1255.451660 677.909241,1255.095215   C681.710327,1254.763184 685.563354,1255.024292 690.357300,1255.024414  z" />
  <path fill="#15222E" opacity="1.000000" stroke="none" d=" M1169.083374,1401.084717   C1169.083374,1388.616821 1169.083374,1376.148926 1169.083374,1363.369385   C1178.950317,1363.369385 1188.685181,1363.369385 1199.026489,1363.369385   C1199.026489,1366.994995 1199.027466,1370.599854 1199.026367,1374.204590   C1199.022827,1386.199463 1198.256714,1398.259521 1199.273926,1410.167114   C1199.989258,1418.541504 1195.404785,1421.795898 1189.492310,1424.667236   C1172.511597,1432.914185 1154.598633,1436.688232 1135.705200,1435.015015   C1107.511963,1432.518311 1085.957764,1419.594971 1073.653076,1393.628296   C1067.215942,1380.043701 1066.469238,1364.983887 1069.565186,1350.643921   C1074.421387,1328.151489 1088.228027,1312.111816 1109.614990,1302.883789   C1126.523926,1295.587769 1144.185547,1293.451050 1161.963867,1297.429077   C1176.204712,1300.615601 1189.461792,1306.847778 1199.797363,1317.855347   C1200.224365,1318.310059 1200.421631,1318.980103 1200.799072,1319.686768   C1198.202271,1322.030518 1195.693115,1324.294922 1192.526367,1326.765137   C1190.914062,1326.980469 1189.959473,1326.990234 1189.056885,1326.663330   C1196.120728,1317.906860 1196.131714,1317.838623 1189.206665,1312.312866   C1188.460083,1311.717407 1187.530640,1311.324097 1186.642334,1310.937866   C1181.587524,1308.740723 1176.635254,1306.223145 1171.420776,1304.503662   C1166.877808,1303.005615 1162.057373,1301.772095 1157.316772,1301.600098   C1151.782104,1301.399170 1146.210815,1302.684082 1140.637573,1302.942261   C1134.984619,1303.203979 1129.300049,1303.212524 1123.648071,1302.940918   C1117.892944,1302.664185 1112.551636,1304.006104 1107.770874,1306.893188   C1102.905029,1309.831665 1098.740479,1314.013306 1093.727295,1316.601440   C1089.061279,1319.010254 1087.134766,1322.412354 1085.907349,1327.173584   C1084.495117,1332.652100 1082.338257,1337.950317 1080.311035,1343.252686   C1079.548584,1345.246948 1077.422729,1347.001953 1077.349487,1348.920654   C1077.182861,1353.278809 1074.845337,1354.135132 1071.038574,1353.546509   C1071.088257,1365.111084 1070.050293,1376.231934 1074.835205,1386.900635   C1077.485596,1392.809937 1079.291626,1399.096680 1084.520264,1403.431763   C1086.321167,1404.925171 1089.127075,1405.894897 1089.938110,1407.768555   C1092.740112,1414.241821 1098.576172,1418.051758 1103.508911,1421.892822   C1111.026855,1427.746826 1120.799805,1430.550537 1130.342773,1430.740601   C1141.123779,1430.955566 1151.892822,1431.550903 1162.873657,1429.450562   C1172.979736,1427.517578 1182.312988,1424.703491 1191.192505,1419.821777   C1195.337036,1417.543335 1198.052246,1409.915405 1196.606079,1405.702148   C1193.692627,1397.214600 1193.871826,1388.451050 1196.478394,1380.069946   C1198.735596,1372.811646 1195.387573,1367.001099 1187.793823,1367.000244   C1184.294800,1366.999756 1180.786011,1367.164062 1177.299805,1366.952637   C1174.099487,1366.758667 1172.865234,1367.814819 1172.936401,1371.168579   C1173.122314,1379.935547 1172.866577,1388.711792 1173.054321,1397.478638   C1173.120728,1400.574585 1171.600586,1401.165771 1169.119141,1401.126221   C1169.105591,1401.113647 1169.083374,1401.084717 1169.083374,1401.084717  z" />
  <path fill="#12273A" opacity="1.000000" stroke="none" d=" M889.017395,1298.963379   C889.657593,1300.267212 890.849548,1301.568237 890.855896,1302.875122   C890.966492,1325.818726 890.931335,1348.762939 890.929810,1371.707031   C890.928467,1391.961792 890.929504,1412.216431 890.929504,1433.098267   C881.070068,1433.098267 871.493286,1433.098267 861.459473,1432.539062   C861.004211,1415.838257 861.007629,1399.696533 861.007141,1383.554810   C861.006287,1357.761353 861.095764,1331.967163 860.907532,1306.175171   C860.876648,1301.940552 862.198730,1300.698853 866.288391,1300.930542   C871.928406,1301.250244 877.602295,1301.118286 883.256653,1300.979004   C886.053467,1300.910156 887.155151,1301.919556 887.038513,1304.739746   C886.933289,1307.283936 887.223450,1309.844360 887.339294,1312.397705   C887.898621,1312.365356 888.458008,1312.333008 889.017395,1312.300659   C889.017395,1307.854858 889.017395,1303.409180 889.017395,1298.963379  M880.657532,1308.179443   C878.351135,1306.591187 876.231995,1304.401855 873.678650,1303.606689   C871.671936,1302.981567 868.054504,1303.284668 867.082947,1304.600708   C865.718140,1306.449341 865.886414,1309.617920 865.882019,1312.222778   C865.878601,1314.290161 866.944153,1316.357910 866.948669,1318.426758   C867.021362,1351.755737 867.000000,1385.084717 867.000000,1418.413818   C867.000000,1429.078979 867.000427,1428.994629 877.878967,1429.048584   C881.381042,1429.065796 884.387085,1428.511230 885.027344,1424.583496   C885.891846,1419.280273 886.536682,1413.926270 886.952148,1408.568848   C887.430664,1402.398926 883.921387,1396.208130 886.966736,1390.002319   C887.158569,1389.611572 887.041138,1388.988281 886.898071,1388.525635   C884.740662,1381.551025 882.409485,1374.616455 884.933105,1367.181396   C885.212891,1366.357056 884.704712,1365.248169 884.507324,1364.282349   C884.021912,1361.907715 882.968811,1359.509155 883.102295,1357.174927   C883.474365,1350.672729 884.571594,1344.209961 884.892090,1337.707520   C885.036560,1334.778320 883.918884,1331.803833 883.542603,1328.828491   C882.697937,1322.149414 881.958740,1315.456909 880.657532,1308.179443  z" />
  <path fill="#24333F" opacity="1.000000" stroke="none" d=" M547.999878,1230.673828   C542.001709,1230.681396 536.460876,1231.114502 531.018311,1230.568237   C526.232971,1230.088013 524.456726,1232.393433 523.029358,1236.263428   C520.528137,1243.044922 517.809631,1249.751221 514.964722,1256.395996   C514.501099,1257.478760 512.932434,1258.781372 511.853699,1258.800415   C501.560730,1258.982056 491.263245,1258.908936 479.919159,1258.908936   C481.605560,1254.494263 482.856110,1250.629517 484.524719,1246.954468   C491.935150,1230.633179 499.496368,1214.380493 506.940430,1198.074219   C511.257507,1188.617676 515.426941,1179.093750 519.714600,1169.623413   C526.114258,1155.488281 532.631714,1141.405884 538.928528,1127.225220   C540.284241,1124.172119 541.998108,1122.801758 545.455383,1122.890137   C553.946960,1123.107178 562.453613,1123.142944 570.942078,1122.871826   C574.155273,1122.769165 575.632812,1124.220581 576.807556,1126.735840   C587.991577,1150.682495 599.260681,1174.589966 610.356812,1198.577393   C616.258423,1211.335571 621.791077,1224.264038 627.644836,1237.044800   C630.135498,1242.482788 633.058899,1247.721191 635.707153,1253.088989   C636.522278,1254.741089 637.077393,1256.521362 638.022949,1258.935791   C626.419495,1258.935791 615.627014,1259.130249 604.847229,1258.846436   C600.093933,1258.721558 600.815125,1253.605225 599.206726,1250.815308   C596.112732,1245.448242 593.407837,1239.741577 591.470642,1233.869385   C590.435791,1230.732666 588.823853,1230.691406 586.487183,1230.691040   C573.824768,1230.688843 561.162292,1230.680054 547.999878,1230.673828  M591.847595,1228.138550   C592.875366,1229.073364 594.395264,1229.815063 594.850647,1230.974609   C597.675598,1238.167603 600.180969,1245.485962 603.016907,1252.674194   C603.422546,1253.702393 605.022644,1254.885010 606.103699,1254.918823   C612.761292,1255.127197 619.432617,1255.166138 626.090942,1254.971802   C629.690430,1254.866943 631.028137,1251.811279 630.031677,1249.189087   C626.820801,1240.739136 623.175415,1232.438721 619.355774,1224.239868   C614.754211,1214.362915 609.673584,1204.709717 605.030701,1194.851196   C596.959534,1177.712769 589.146973,1160.452515 581.047363,1143.327759   C578.591370,1138.135254 575.642822,1133.163208 572.676331,1128.236938   C572.187805,1127.425781 570.442017,1127.042603 569.269470,1127.026001   C561.773865,1126.920654 554.265503,1126.757202 546.786255,1127.122559   C544.867310,1127.216187 542.130188,1128.687134 541.318787,1130.303467   C536.942322,1139.021240 533.018860,1147.968384 529.005249,1156.866089   C522.956787,1170.275024 516.965759,1183.709961 510.944824,1197.131348   C507.487518,1204.838135 503.957214,1212.513062 500.577179,1220.253418   C498.189819,1225.720581 496.222168,1231.380249 493.655975,1236.757568   C491.273499,1241.750122 488.280975,1246.448486 485.722534,1251.362549   C485.294952,1252.184082 485.400085,1254.221680 485.786743,1254.376221   C488.311188,1255.384766 490.991760,1256.689819 493.601166,1256.647827   C498.273468,1256.572510 502.944214,1255.695801 507.587830,1254.974976   C508.955444,1254.762573 510.916382,1254.315308 511.434998,1253.348145   C514.809082,1247.055298 518.583862,1240.818604 520.717590,1234.085205   C521.813171,1230.627930 522.472168,1228.719238 527.046448,1228.835571   C546.811340,1228.845825 566.576294,1228.874878 586.341064,1228.830933   C587.926208,1228.827393 589.510254,1228.321167 591.847595,1228.138550  z" />
  <path fill="#182630" opacity="1.000000" stroke="none" d=" M626.361328,1388.863281   C626.201660,1387.702393 625.884644,1385.817505 626.627869,1385.191528   C631.488159,1381.098511 636.727173,1377.452148 641.552185,1373.320923   C646.858337,1368.777832 648.238098,1362.232788 648.888245,1355.751587   C649.434265,1350.308838 649.310852,1344.746582 648.932556,1339.275269   C648.287903,1329.951782 645.158508,1321.712158 637.123047,1316.054932   C632.466797,1312.776855 628.098938,1308.949707 623.089783,1306.358398   C619.342712,1304.420044 614.789978,1303.202026 610.575684,1303.143921   C588.315186,1302.837280 566.048157,1302.989258 543.783447,1303.006714   C537.370789,1303.011719 537.000977,1303.405762 537.000183,1309.803955   C536.995728,1347.619751 536.998169,1385.435425 536.998291,1423.251221   C536.998291,1424.886475 536.998291,1426.521851 536.998291,1427.962036   C544.638855,1431.161133 552.012268,1431.072632 559.230835,1428.729370   C560.861450,1428.200195 562.835571,1425.391724 562.798950,1423.671875   C562.674866,1417.843140 561.981323,1411.988159 561.012146,1406.226074   C559.943359,1399.871094 565.290405,1393.002319 571.764832,1393.000366   C577.262268,1392.998657 582.761658,1392.919312 588.255859,1393.052490   C589.778625,1393.089478 591.286011,1393.761719 592.895264,1394.533325   C584.187439,1394.924072 575.384705,1394.924072 565.918213,1394.924072   C565.918213,1398.363525 565.900146,1401.286011 565.921692,1404.208252   C565.982910,1412.534668 566.191833,1420.864258 565.997070,1429.184448   C565.965942,1430.515503 564.188232,1432.911133 563.162964,1432.941284   C553.361816,1433.228882 543.548828,1433.113159 533.057129,1433.113159   C533.057129,1431.029907 533.056396,1429.270630 533.057251,1427.511353   C533.078247,1385.870850 533.147095,1344.230103 533.040283,1302.589966   C533.030579,1298.803833 534.390015,1297.562134 537.909546,1297.578369   C557.229614,1297.667480 576.602905,1296.816895 595.853455,1297.995605   C611.009094,1298.923462 626.087708,1301.479980 638.364258,1312.526855   C651.288696,1324.156738 655.254883,1342.925537 651.680237,1358.567627   C648.336182,1373.200562 638.763062,1381.778809 626.361328,1388.863281  z" />
  <path fill="#152231" opacity="1.000000" stroke="none" d=" M333.078094,1225.288818   C335.033966,1212.163574 329.256073,1210.856934 318.164215,1207.200073   C303.872772,1202.488647 288.925537,1199.710327 274.761627,1194.687012   C264.471680,1191.037598 257.735687,1183.436035 254.406845,1171.985840   C250.345261,1158.015137 257.917328,1139.896606 269.405640,1132.078979   C276.524353,1127.234985 284.357971,1123.684692 292.973480,1122.910645   C303.625549,1121.953613 314.388092,1120.865601 325.019470,1121.423462   C335.619019,1121.979736 345.454712,1126.023560 355.086975,1130.970337   C360.661499,1133.833252 359.125214,1135.801636 357.377289,1139.565063   C354.762512,1145.194824 352.621674,1151.044800 350.119263,1157.194214   C346.407440,1155.668091 342.651245,1154.213501 338.968201,1152.592651   C327.861328,1147.704346 316.153564,1145.958252 304.256927,1147.391479   C299.291931,1147.989502 294.619049,1151.012451 289.092651,1152.969971   C287.915039,1153.004761 287.458130,1153.002319 287.035095,1152.641724   C288.416626,1148.624023 289.877838,1144.888916 294.288055,1144.135864   C308.424591,1141.723022 322.277161,1142.476685 335.547760,1148.465210   C345.783875,1153.084595 347.853210,1151.818970 353.426422,1142.300415   C356.910919,1136.349243 351.723572,1134.609619 349.514984,1133.450439   C343.949554,1130.529541 337.600067,1129.094604 331.542786,1127.132324   C330.972778,1126.947510 330.145355,1127.054688 329.608948,1127.344238   C321.194977,1131.885620 312.557465,1128.308594 304.876801,1126.241943   C297.777283,1124.331787 292.414856,1126.610229 286.745636,1128.545166   C281.419922,1130.363159 276.911957,1134.537720 271.603424,1136.454712   C264.998505,1138.839966 258.923248,1145.605469 259.042236,1152.731323   C259.147186,1159.017944 260.455597,1165.413574 259.628571,1171.544678   C259.000275,1176.202393 260.520630,1179.316040 263.197693,1182.086548   C269.357361,1188.461426 276.472992,1192.943115 285.372406,1195.441040   C293.022400,1197.588135 300.419708,1199.260132 308.351929,1199.079956   C312.664551,1198.982056 317.581940,1198.395142 319.460632,1204.139282   C319.594757,1204.549561 320.544189,1204.824585 321.154266,1204.927856   C330.248291,1206.468506 334.707214,1213.580811 339.409424,1220.292236   C339.928467,1221.032959 339.548798,1223.083252 338.848114,1223.864502   C337.128113,1225.782104 334.977264,1227.313232 333.000916,1228.628662   C333.027405,1227.267822 333.052765,1226.278320 333.078094,1225.288818  z" />
  <path fill="#182630" opacity="1.000000" stroke="none" d=" M332.901550,1225.568115   C333.052765,1226.278320 333.027405,1227.267822 332.944092,1228.975830   C332.139099,1230.566406 331.543671,1231.668945 330.621765,1232.275146   C319.166962,1239.807861 306.390167,1239.319702 294.073273,1236.428955   C284.619415,1234.210083 275.808838,1229.295166 266.627380,1225.802002   C265.713379,1225.454468 263.613403,1226.303833 263.077881,1227.202026   C260.201447,1232.026978 257.645966,1237.043213 254.743301,1242.432251   C258.456085,1244.852783 261.368500,1247.558105 264.809601,1248.809692   C270.228973,1250.780884 275.956726,1252.017334 281.639923,1253.122437   C289.403076,1254.632202 297.264954,1256.844971 305.051666,1256.719360   C315.040405,1256.558472 324.970978,1254.105469 334.975494,1253.153687   C341.917511,1252.493164 347.329742,1249.318237 352.231995,1244.794434   C358.472931,1239.035034 361.239380,1231.866211 363.635101,1223.648438   C365.550995,1217.076416 362.913513,1211.992554 362.472229,1206.367310   C362.176666,1202.599609 359.291656,1198.006836 356.153503,1195.723511   C351.020294,1191.988647 344.939056,1189.248657 338.887817,1187.161377   C331.272766,1184.534546 323.163361,1183.363037 315.490906,1180.874146   C306.570251,1177.980591 297.863525,1174.412842 289.117096,1171.001465   C282.085602,1168.258911 280.339966,1159.045776 287.001221,1153.000000   C287.458130,1153.002319 287.915039,1153.004761 288.714539,1153.014160   C285.207947,1159.520630 286.238647,1167.179443 290.242035,1168.883667   C295.113770,1170.957520 299.900574,1173.375732 304.957001,1174.841919   C317.439026,1178.461182 330.195984,1181.173950 342.574127,1185.097534   C354.103790,1188.751831 362.905304,1196.055054 366.660950,1208.110474   C370.665894,1220.966064 365.057983,1238.536499 354.358978,1247.055908   C345.921265,1253.774658 336.381592,1257.415894 325.643921,1259.385986   C306.896027,1262.825684 288.912018,1260.306763 271.160736,1254.743408   C265.079895,1252.837769 259.343018,1249.677612 253.687759,1246.645386   C251.308395,1245.369629 249.996506,1243.359741 251.960815,1239.914307   C255.667389,1233.412964 258.539978,1226.436035 261.765991,1219.642578   C267.288696,1222.320190 272.806671,1224.565918 277.891968,1227.549194   C288.965271,1234.045410 301.106293,1233.914551 313.228241,1233.649414   C317.237518,1233.561646 321.387146,1232.561035 325.153687,1231.135132   C327.944733,1230.078613 330.220001,1227.659546 332.901550,1225.568115  z" />
  <path fill="#15222D" opacity="1.000000" stroke="none" d=" M707.385742,1302.168213   C707.375305,1346.000366 707.375305,1389.442505 707.375305,1432.808350   C696.342773,1432.808350 685.918030,1432.808350 675.019897,1432.808350   C675.019897,1430.901123 675.020020,1429.279663 675.019958,1427.658203   C675.018982,1386.382812 675.039734,1345.107422 674.979248,1303.832031   C674.973877,1300.154785 674.921265,1297.880859 680.129395,1298.372925   C688.281677,1299.143311 696.556213,1298.635132 704.778992,1298.634277   C706.982849,1298.634033 708.460449,1299.116333 707.385742,1302.168213  M704.997559,1357.500000   C704.996826,1343.170166 705.023315,1328.840332 704.984619,1314.510620   C704.963745,1306.767090 701.115051,1303.010254 693.353088,1303.000732   C690.020569,1302.996704 686.678589,1303.156616 683.358276,1302.955078   C680.220398,1302.764771 678.933228,1303.702148 678.941589,1307.113159   C679.038269,1346.436646 679.030212,1385.760376 678.949158,1425.083984   C678.942749,1428.207520 680.087769,1429.133179 683.052917,1429.046875   C688.713379,1428.882080 694.396179,1428.755005 700.042542,1429.082520   C704.078918,1429.316650 705.108521,1427.880981 705.078430,1423.983276   C704.909851,1402.156616 704.997498,1380.328003 704.997559,1357.500000  z" />
  <path fill="#15222D" opacity="1.000000" stroke="none" d=" M1189.004883,1327.000000   C1189.959473,1326.990234 1190.914062,1326.980469 1192.225342,1326.942017   C1188.503174,1330.748657 1184.424072,1334.584106 1180.408081,1338.360352   C1175.963623,1335.171387 1171.820190,1331.834106 1167.328369,1329.060913   C1160.582275,1324.896118 1152.823364,1324.090820 1145.165527,1324.022949   C1128.464355,1323.874878 1114.348999,1329.167847 1106.259155,1345.005859   C1101.314819,1354.685547 1099.546753,1364.709961 1102.349365,1375.708252   C1105.816162,1389.312500 1113.690796,1398.586060 1126.425415,1403.896606   C1136.936890,1408.280151 1147.770020,1408.569946 1158.656006,1405.469971   C1162.064209,1404.499512 1165.299927,1402.923340 1168.848999,1401.354614   C1169.083374,1401.084717 1169.105591,1401.113647 1169.059570,1401.500854   C1168.994507,1407.229248 1164.455200,1406.729370 1161.252319,1407.703125   C1155.176636,1409.549927 1149.055664,1412.223267 1142.877563,1412.445923   C1138.012329,1412.621460 1132.957642,1409.831543 1128.121094,1408.004517   C1119.466797,1404.735229 1112.121826,1400.092041 1106.603882,1392.001343   C1102.393921,1385.828491 1099.524536,1379.760620 1098.948364,1372.420288   C1098.788086,1370.377686 1097.711914,1368.405884 1097.560791,1366.364136   C1097.201416,1361.504761 1095.536987,1355.925171 1097.289307,1351.891724   C1101.283081,1342.698608 1106.347412,1333.885864 1116.046387,1328.819702   C1124.721191,1324.288086 1132.965820,1318.768188 1143.244751,1319.087891   C1146.578857,1319.191650 1149.855591,1320.527954 1153.202881,1320.946045   C1160.292847,1321.831177 1166.758911,1323.783325 1172.091309,1328.981934   C1178.203613,1334.940918 1179.945679,1334.749146 1186.210815,1328.872803   C1187.017822,1328.115845 1188.067627,1327.617920 1189.004883,1327.000000  z" />
  <path fill="#414F5C" opacity="1.000000" stroke="none" d=" M761.140015,1257.378662   C769.836487,1256.962646 778.499878,1256.926514 787.161987,1257.013672   C790.741211,1257.049683 792.900330,1255.827881 792.897095,1251.898682   C792.862854,1210.248413 792.851685,1168.598267 792.815674,1126.947998   C792.815247,1126.481445 792.569641,1126.015137 792.267578,1124.941040   C783.430176,1124.941040 774.490173,1124.815796 765.565552,1125.128662   C764.639709,1125.161133 763.078918,1127.780762 763.045532,1129.228394   C762.822998,1138.886108 762.942017,1148.551514 762.938049,1158.214478   C762.925720,1188.702637 762.925049,1219.190796 762.847107,1249.678833   C762.842773,1251.374756 762.183167,1253.069092 761.454346,1254.893555   C761.024414,1227.049438 760.958069,1199.076050 760.917236,1171.102661   C760.894165,1155.299316 760.913025,1139.496094 760.913025,1122.919067   C771.474060,1122.919067 781.728760,1122.829712 791.975708,1123.071289   C792.899658,1123.093018 794.343445,1125.157471 794.550659,1126.434937   C794.972351,1129.034790 794.732605,1131.744751 794.733459,1134.409424   C794.746826,1174.213989 794.707764,1214.018555 794.840637,1253.822754   C794.853210,1257.599121 794.055603,1259.190796 789.933655,1259.049927   C781.616089,1258.765503 773.281372,1259.015381 764.955261,1258.914917   C763.668091,1258.899414 762.389160,1258.194336 761.140015,1257.378662  z" />
  <path fill="#57636B" opacity="1.000000" stroke="none" d=" M1098.591797,1123.006348   C1097.508789,1123.684204 1095.974731,1124.708496 1094.418579,1124.743286   C1086.809204,1124.913940 1079.193848,1124.820679 1071.271729,1124.820679   C1071.271729,1169.074829 1071.271729,1212.773071 1071.271729,1256.794922   C1081.060303,1256.794922 1090.639648,1256.794922 1100.542847,1256.794922   C1100.700195,1255.747559 1101.009033,1254.649658 1101.009155,1253.551636   C1101.015137,1211.250977 1100.994141,1168.950439 1100.967896,1126.649780   C1100.967407,1125.819214 1100.864624,1124.988525 1100.849487,1123.706299   C1101.576172,1124.758545 1102.846313,1126.257324 1102.860229,1127.767578   C1103.013428,1144.262207 1102.975342,1160.758789 1102.979492,1177.254761   C1102.985718,1202.415405 1102.984131,1227.576050 1102.985962,1252.736694   C1102.986084,1254.548828 1102.986084,1256.361084 1102.986084,1258.625366   C1091.605469,1258.625366 1080.582031,1258.625366 1069.265869,1258.625366   C1069.265869,1213.535522 1069.265869,1168.623047 1069.265869,1122.896973   C1078.952271,1122.896973 1088.541504,1122.896973 1098.591797,1123.006348  z" />
  <path fill="#081623" opacity="1.000000" stroke="none" d=" M799.099915,1323.075562   C798.538818,1322.829834 797.977661,1322.584229 797.416565,1322.338501   C797.429688,1321.823364 797.442810,1321.308105 797.455933,1320.792969   C802.033508,1320.792969 806.611145,1320.777588 811.188660,1320.796387   C819.836914,1320.831787 828.486084,1320.951050 837.130981,1320.803955   C837.771606,1320.792969 838.873352,1318.948242 838.919189,1317.918457   C839.118896,1313.432983 838.916138,1308.931030 839.043518,1304.440308   C839.117981,1301.815308 838.021545,1300.855347 835.486816,1300.978760   C832.996033,1301.100098 830.494446,1301.000122 827.997620,1301.000244   C798.867737,1301.003052 769.737915,1301.006470 740.608032,1301.009888   C739.442871,1301.010010 738.270386,1300.927856 737.113708,1301.027344   C731.229492,1301.533081 726.224670,1302.915405 726.822449,1310.980347   C727.562256,1320.962524 726.990723,1321.005005 736.905396,1321.005005   C745.894043,1321.005005 754.882751,1320.989258 763.871277,1321.020386   C765.379211,1321.025513 766.886475,1321.233276 768.290466,1322.500488   C754.164001,1322.500488 740.037537,1322.500488 724.997559,1322.500488   C724.997559,1315.029297 724.997559,1307.451416 724.987610,1299.400146   C727.453186,1298.808838 729.928650,1298.588013 732.404175,1298.588013   C768.311035,1298.587524 804.217957,1298.616699 840.573914,1299.258545   C841.023010,1307.433105 841.023010,1314.987793 841.023010,1323.075562   C826.520325,1323.075562 812.810120,1323.075562 799.099915,1323.075562  z" />
  <path fill="#57636B" opacity="1.000000" stroke="none" d=" M1132.642578,1123.125854   C1133.039307,1166.923584 1133.001831,1210.668579 1132.977173,1254.413574   C1132.976807,1255.054443 1133.136597,1255.695312 1133.269775,1256.700317   C1143.043579,1256.700317 1152.728027,1256.700317 1163.029297,1256.700317   C1163.029297,1247.928589 1162.972290,1239.325928 1163.073975,1230.725220   C1163.096191,1228.847900 1163.685303,1226.977295 1164.409058,1225.014648   C1164.855347,1235.075806 1165.003540,1245.227417 1164.829956,1255.373535   C1164.808716,1256.609497 1163.084351,1258.851196 1162.104370,1258.876343   C1151.989990,1259.136353 1141.866333,1259.036133 1131.278564,1259.036133   C1131.165161,1256.776367 1130.999390,1255.007446 1130.998657,1253.238403   C1130.981445,1211.451538 1130.968506,1169.664551 1131.031372,1127.877808   C1131.033691,1126.275635 1131.799438,1124.674683 1132.642578,1123.125854  z" />
  <path fill="#081623" opacity="1.000000" stroke="none" d=" M888.568726,1298.810303   C889.017395,1303.409180 889.017395,1307.854858 889.017395,1312.300659   C888.458008,1312.333008 887.898621,1312.365356 887.339294,1312.397705   C887.223450,1309.844360 886.933289,1307.283936 887.038513,1304.739746   C887.155151,1301.919556 886.053467,1300.910156 883.256653,1300.979004   C877.602295,1301.118286 871.928406,1301.250244 866.288391,1300.930542   C862.198730,1300.698853 860.876648,1301.940552 860.907532,1306.175171   C861.095764,1331.967163 861.006287,1357.761353 861.007141,1383.554810   C861.007629,1399.696533 861.004211,1415.838257 860.999329,1432.442505   C857.156677,1433.367065 858.673645,1430.365723 858.664001,1428.865845   C858.557190,1412.241333 858.609985,1395.615723 858.612671,1378.990479   C858.616821,1353.221313 858.615540,1327.452148 858.616577,1301.682983   C858.616638,1300.882080 858.616577,1300.081055 858.616577,1298.657227   C868.624817,1298.657227 878.372498,1298.657227 888.568726,1298.810303  z" />
  <path fill="#081623" opacity="1.000000" stroke="none" d=" M946.566345,1298.917725   C945.680176,1299.753296 944.390747,1300.854492 943.045349,1300.927856   C938.737244,1301.162598 934.408508,1301.014160 930.087708,1301.018066   C923.022705,1301.024536 923.016052,1301.026123 923.015564,1307.865601   C923.012512,1349.245483 923.012573,1390.625244 923.006470,1432.469482   C922.221130,1432.239502 920.861877,1431.614868 920.768250,1430.837646   C920.471863,1428.378662 920.644043,1425.862549 920.643616,1423.368530   C920.635986,1382.798340 920.629700,1342.228149 920.623108,1301.657959   C920.622986,1300.854736 920.623108,1300.051636 920.623108,1298.712769   C929.319641,1298.712769 937.728516,1298.712769 946.566345,1298.917725  z" />
  <path fill="#57636B" opacity="1.000000" stroke="none" d=" M1008.874023,1256.848877   C1008.921936,1222.768311 1009.065918,1188.687134 1008.906616,1154.607544   C1008.884583,1149.896484 1010.339600,1148.368652 1014.830688,1148.797363   C1017.962158,1149.096436 1021.141724,1148.891846 1024.766846,1149.047607   C1022.607361,1149.652710 1019.995178,1150.250732 1017.349243,1150.549683   C1015.418030,1150.767944 1013.442322,1150.592407 1010.971252,1150.592407   C1010.971252,1152.874023 1010.971619,1154.658691 1010.971191,1156.443237   C1010.962585,1188.713013 1010.972778,1220.982910 1010.895142,1253.252563   C1010.890808,1255.056763 1010.161926,1256.859131 1009.341675,1258.369141   C1008.900024,1257.666992 1008.887024,1257.257935 1008.874023,1256.848877  z" />
  <path fill="#081623" opacity="1.000000" stroke="none" d=" M512.932861,1312.613525   C508.915710,1310.102539 511.437225,1306.933228 512.673157,1302.862915   C510.666809,1302.245972 508.673126,1301.233154 506.617493,1301.086060   C502.638550,1300.801147 498.607880,1301.230835 494.630432,1300.935669   C491.229523,1300.683228 488.817871,1301.545044 488.009583,1305.022583   C487.077911,1309.030884 486.408722,1313.099731 485.504517,1317.114990   C485.282501,1318.100952 484.751526,1319.591064 484.076355,1319.770264   C483.000916,1320.055420 481.685303,1319.434814 480.214539,1319.122314   C481.645905,1313.379150 483.199219,1307.664917 485.114990,1302.074829   C485.606659,1300.640137 487.210846,1298.570801 488.356232,1298.536377   C497.872009,1298.250977 507.400024,1298.374634 517.811890,1298.374634   C516.024292,1303.600342 514.546753,1307.919678 512.932861,1312.613525  z" />
  <path fill="#081623" opacity="1.000000" stroke="none" d=" M341.878967,1324.671509   C341.380188,1326.152100 340.828217,1327.275024 340.061859,1328.833862   C337.663055,1321.565063 335.379700,1314.629150 333.084564,1307.697266   C331.636017,1303.322266 329.406372,1300.455688 323.978424,1300.893311   C317.933563,1301.380737 311.819122,1301.004883 305.928894,1301.004883   C305.119049,1303.283691 304.493744,1305.043091 303.497742,1306.895264   C302.764099,1306.284790 302.226074,1305.617676 302.072205,1304.871460   C301.667877,1302.910767 301.112366,1300.876099 301.349823,1298.961792   C301.409607,1298.479980 304.217438,1298.113647 305.770599,1298.080811   C313.189362,1297.923828 320.621948,1298.113159 328.026398,1297.729736   C331.229858,1297.563965 332.944519,1298.518311 333.917480,1301.452759   C335.567200,1306.428589 337.338745,1311.363892 338.988159,1317.027222   C339.526215,1318.832153 340.135162,1319.926025 340.744080,1321.020020   C341.104645,1322.117920 341.465179,1323.215820 341.878967,1324.671509  z" />
  <path fill="#57636B" opacity="1.000000" stroke="none" d=" M976.695251,1149.691162   C977.456970,1150.887817 978.867310,1152.537109 978.874084,1154.192139   C979.013916,1188.114746 978.993530,1222.038086 979.041992,1256.730957   C979.063293,1257.914185 979.047607,1258.327637 979.031982,1258.740967   C978.371460,1257.033936 977.141418,1255.328979 977.134644,1253.619385   C977.005981,1221.120483 977.027100,1188.621094 976.993652,1156.121704   C976.991638,1154.129761 976.795898,1152.138184 976.695251,1149.691162  z" />
  <path fill="#081623" opacity="1.000000" stroke="none" d=" M799.010864,1430.536987   C798.281128,1429.686035 797.092957,1428.376343 797.088623,1427.062744   C796.983032,1394.957886 796.991211,1362.852539 797.048706,1330.747437   C797.050842,1329.565430 797.755737,1328.384888 798.523193,1327.109131   C798.976807,1361.368530 799.040405,1395.722412 799.010864,1430.536987  z" />
  <path fill="#081623" opacity="1.000000" stroke="none" d=" M949.337402,1433.002441   C949.002686,1406.514526 949.002686,1380.112793 949.002686,1353.711182   C949.651611,1353.707520 950.300598,1353.703857 950.949524,1353.700195   C950.949524,1379.760498 950.949524,1405.820923 950.971008,1432.335693   C950.552307,1432.889771 950.112183,1432.989380 949.337402,1433.002441  z" />
  <path fill="#384551" opacity="1.000000" stroke="none" d=" M799.088562,1323.438721   C812.810120,1323.075562 826.520325,1323.075562 841.023010,1323.075562   C841.023010,1314.987793 841.023010,1307.433105 841.024475,1299.405273   C841.680237,1299.571411 842.892761,1300.201416 842.903748,1300.851807   C843.035522,1308.627319 842.988770,1316.405762 842.988770,1325.199951   C828.432800,1325.199951 814.246399,1325.199951 799.601257,1325.227539   C799.120728,1324.770630 799.098999,1324.286133 799.088562,1323.438721  z" />
  <path fill="#57636B" opacity="1.000000" stroke="none" d=" M1165.088135,1182.457275   C1164.415405,1181.394409 1163.142090,1179.874023 1163.127686,1178.341797   C1162.977295,1162.421753 1163.035522,1146.500000 1163.019165,1130.578613   C1163.016968,1128.423950 1162.923584,1126.269409 1162.892578,1123.659058   C1163.595215,1124.695312 1164.857422,1126.181763 1164.871826,1127.680176   C1165.045410,1145.783813 1165.034790,1163.889282 1165.088135,1182.457275  z" />
  <path fill="#081623" opacity="1.000000" stroke="none" d=" M425.087158,1302.529785   C424.922180,1304.026978 424.798676,1305.149780 424.675171,1306.272705   C422.156036,1299.516846 416.503876,1301.041992 411.504333,1301.012329   C406.221283,1300.980957 400.937866,1301.005249 395.202942,1301.005249   C395.267426,1301.563110 395.177368,1300.783936 395.052612,1299.656006   C401.405853,1299.094116 407.793457,1298.873291 414.181702,1298.671875   C416.327576,1298.604126 418.516571,1298.835205 420.611877,1298.485962   C423.712708,1297.968872 425.083405,1299.132935 425.087158,1302.529785  z" />
  <path fill="#081623" opacity="1.000000" stroke="none" d=" M1046.955322,1300.549438   C1039.961182,1301.006226 1033.040161,1300.936890 1026.122925,1301.068848   C1024.206665,1301.105225 1022.109253,1301.352051 1020.433228,1302.183838   C1017.272461,1303.752441 1017.015442,1302.050293 1016.975464,1299.289307   C1026.276245,1298.812134 1035.578003,1298.702759 1044.879517,1298.720825   C1045.597168,1298.722168 1046.312988,1299.618896 1046.955322,1300.549438  z" />
  <path fill="#414F5C" opacity="1.000000" stroke="none" d=" M979.484741,1258.861816   C979.047607,1258.327637 979.063293,1257.914185 979.088013,1257.190063   C988.719727,1256.912231 998.342468,1256.945190 1008.419556,1256.913574   C1008.887024,1257.257935 1008.900024,1257.666992 1008.937622,1258.381714   C999.287292,1258.785767 989.612366,1258.884155 979.484741,1258.861816  z" />
  <path fill="#10263A" opacity="1.000000" stroke="none" d=" M340.797729,1320.678589   C340.135162,1319.926025 339.526215,1318.832153 338.956848,1317.373779   C339.614746,1318.118530 340.233032,1319.227905 340.797729,1320.678589  z" />
  <path fill="#F7FAFB" opacity="1.000000" stroke="none" d=" M608.284424,1327.534546   C619.054626,1333.178589 620.518188,1342.466675 618.869629,1352.720581   C617.429504,1361.677856 609.944946,1365.110107 602.854126,1368.596680   C601.603210,1369.211792 599.910095,1369.029541 598.419983,1369.039673   C588.762573,1369.105469 579.104736,1369.142944 569.447083,1369.130981   C568.171143,1369.129395 566.895630,1368.794922 565.489868,1368.596191   C565.489868,1354.167847 565.489868,1340.052368 565.489868,1324.811401   C579.592041,1325.860352 593.890991,1322.835449 608.284424,1327.534546  z" />
  <path fill="#11263A" opacity="1.000000" stroke="none" d=" M847.543213,1170.970093   C849.482788,1172.511719 851.098206,1174.279053 853.022644,1174.731323   C860.117065,1176.398315 867.424011,1177.220215 874.448914,1179.111206   C888.616760,1182.924683 903.310120,1185.625000 915.923889,1193.530762   C919.792725,1195.955566 923.114502,1200.662720 924.651733,1205.039551   C926.546021,1210.433472 927.039978,1216.598999 926.842896,1222.386841   C926.478455,1233.084473 921.508301,1241.274414 912.296448,1247.395874   C905.696045,1251.781738 898.761169,1253.565186 891.233459,1255.427368   C881.421631,1257.854736 871.806824,1256.885742 862.187012,1256.723633   C855.720093,1256.614868 849.190369,1254.294556 842.880981,1252.342407   C835.759949,1250.138916 828.763977,1247.452271 821.897827,1244.541138   C818.992737,1243.309326 818.069092,1240.468384 819.657410,1237.391602   C821.302612,1234.204712 823.494751,1231.224365 824.645386,1227.877808   C825.976868,1224.005371 828.189392,1224.580811 830.772034,1225.827271   C836.599365,1228.640015 842.148682,1232.223022 848.221924,1234.279419   C854.950256,1236.557373 862.252625,1239.085938 869.093018,1238.588867   C877.447144,1237.981689 886.291809,1237.413330 894.020264,1232.774048   C901.893127,1228.048218 903.140076,1218.600220 896.970581,1211.816284   C891.596252,1205.906738 884.170532,1205.225098 877.336548,1203.075439   C870.452576,1200.910034 863.386475,1199.319092 856.387512,1197.525879   C853.887512,1196.885132 851.233582,1196.688843 848.856445,1195.760620   C844.830444,1194.188477 840.400085,1192.879395 837.183716,1190.204346   C833.309387,1186.982056 830.200134,1182.669312 827.334106,1178.439453   C820.735840,1168.700806 820.876892,1168.605225 820.999878,1156.603760   C821.071716,1149.593994 826.920288,1141.441895 833.547119,1138.877563   C834.706055,1138.429199 836.151733,1137.578369 836.569275,1136.549683   C838.688965,1131.327759 842.566772,1129.171631 847.998230,1128.863647   C849.674133,1128.768555 851.327332,1127.711426 852.929077,1126.962524   C860.871643,1123.249146 869.281311,1125.507812 877.469727,1125.134277   C879.603516,1125.036987 881.808716,1126.430542 883.975830,1127.155029   C888.714417,1128.739380 893.120361,1129.191895 898.399475,1127.951050   C902.380127,1127.015503 907.356812,1130.086426 911.825378,1131.569214   C913.643433,1132.172485 915.550659,1132.995117 916.965149,1134.234131   C920.954956,1137.729004 917.225769,1141.443604 916.199951,1144.392944   C913.563293,1151.973633 909.260071,1153.475708 902.024902,1149.154663   C891.218628,1142.700928 879.604431,1142.312256 867.716003,1143.081787   C863.843140,1143.332520 859.996033,1144.291870 856.188904,1145.155273   C852.833801,1145.916260 847.006226,1153.607178 847.024292,1157.138062   C847.047241,1161.623291 847.240906,1166.107666 847.543213,1170.970093  z" />
  <path fill="#0E253A" opacity="1.000000" stroke="none" d=" M447.140503,1145.581543   C445.110931,1147.129883 443.291260,1148.333252 441.747345,1149.822388   C439.300415,1152.182495 437.714722,1155.235474 439.788940,1158.327637   C446.589874,1168.466553 444.776276,1179.580078 444.142670,1190.659058   C443.956177,1193.919922 444.929352,1197.231445 444.954041,1200.522949   C445.055908,1214.103027 445.101776,1227.685791 444.937592,1241.264771   C444.885223,1245.597290 443.540009,1249.630981 439.948822,1252.588745   C437.416840,1254.674194 426.023010,1256.328247 423.405762,1254.425903   C422.164246,1253.523438 421.277618,1251.498901 421.106995,1249.889648   C420.757538,1246.593506 420.982269,1243.234253 421.002441,1239.901245   C421.043701,1233.086914 419.881104,1226.369141 420.794098,1219.431274   C421.721100,1212.387085 420.998749,1205.125732 420.998749,1197.959473   C420.998749,1190.793213 421.160431,1183.621582 420.922546,1176.463257   C420.821503,1173.422729 419.705994,1170.427856 419.401062,1167.377319   C419.251984,1165.886230 419.605621,1164.177246 420.241486,1162.802856   C423.832031,1155.042114 421.783051,1147.098145 414.135681,1144.053345   C410.240723,1142.502686 405.351624,1143.091675 400.936829,1143.284180   C393.609802,1143.603638 386.303070,1144.386230 378.986664,1144.959106   C378.665070,1144.984253 378.276428,1144.955200 378.012421,1144.796265   C372.459625,1141.451538 375.468170,1136.049316 375.313171,1131.622437   C375.261444,1130.144653 378.415558,1127.693848 380.466919,1127.202637   C383.619629,1126.447876 387.085754,1127.000366 390.418884,1127.000244   C420.750488,1127.000000 451.082581,1127.079834 481.413208,1126.908691   C485.666931,1126.884766 487.698730,1127.794678 487.051666,1132.389038   C486.752502,1134.513428 487.009705,1136.714966 486.999329,1138.881470   C486.971008,1144.800415 485.638428,1145.698120 479.803284,1144.855103   C473.759613,1143.981934 467.642822,1143.125732 461.562286,1143.154541   C456.862823,1143.177002 452.169861,1144.577026 447.140503,1145.581543  z" />
  <path fill="#0E253A" opacity="1.000000" stroke="none" d=" M689.875366,1255.024414   C685.563354,1255.024292 681.710327,1254.763184 677.909241,1255.095215   C673.829224,1255.451660 672.878357,1253.828003 672.894836,1249.976074   C673.029785,1218.336304 672.974426,1186.695679 672.970154,1155.055298   C672.969116,1147.355347 670.631836,1145.026978 662.938049,1145.025024   C651.852478,1145.022339 640.766846,1145.024414 628.999512,1145.024414   C628.999512,1139.507202 628.763245,1134.560181 629.193359,1129.671753   C629.282349,1128.660400 631.835388,1127.119263 633.276794,1127.092041   C644.596619,1126.877319 655.922424,1126.971313 667.246338,1126.971069   C689.228088,1126.970703 711.209778,1126.970459 733.191528,1126.970825   C739.803345,1126.970947 742.408569,1129.478638 743.050964,1136.135498   C743.758545,1143.466553 741.441650,1147.620605 732.801086,1147.141235   C723.504211,1146.625366 714.148926,1147.248413 704.834045,1146.933472   C700.363892,1146.782471 698.884583,1147.925293 698.917908,1152.673218   C699.137512,1183.979004 699.029968,1215.286987 699.028137,1246.594360   C699.027649,1255.011475 699.026123,1255.011475 689.875366,1255.024414  z" />
  <path fill="#11263A" opacity="1.000000" stroke="none" d=" M1189.056885,1326.663330   C1188.067627,1327.617920 1187.017822,1328.115845 1186.210815,1328.872803   C1179.945679,1334.749146 1178.203613,1334.940918 1172.091309,1328.981934   C1166.758911,1323.783325 1160.292847,1321.831177 1153.202881,1320.946045   C1149.855591,1320.527954 1146.578857,1319.191650 1143.244751,1319.087891   C1132.965820,1318.768188 1124.721191,1324.288086 1116.046387,1328.819702   C1106.347412,1333.885864 1101.283081,1342.698608 1097.289307,1351.891724   C1095.536987,1355.925171 1097.201416,1361.504761 1097.560791,1366.364136   C1097.711914,1368.405884 1098.788086,1370.377686 1098.948364,1372.420288   C1099.524536,1379.760620 1102.393921,1385.828491 1106.603882,1392.001343   C1112.121826,1400.092041 1119.466797,1404.735229 1128.121094,1408.004517   C1132.957642,1409.831543 1138.012329,1412.621460 1142.877563,1412.445923   C1149.055664,1412.223267 1155.176636,1409.549927 1161.252319,1407.703125   C1164.455200,1406.729370 1168.994507,1407.229248 1169.073120,1401.513428   C1171.600586,1401.165771 1173.120728,1400.574585 1173.054321,1397.478638   C1172.866577,1388.711792 1173.122314,1379.935547 1172.936401,1371.168579   C1172.865234,1367.814819 1174.099487,1366.758667 1177.299805,1366.952637   C1180.786011,1367.164062 1184.294800,1366.999756 1187.793823,1367.000244   C1195.387573,1367.001099 1198.735596,1372.811646 1196.478394,1380.069946   C1193.871826,1388.451050 1193.692627,1397.214600 1196.606079,1405.702148   C1198.052246,1409.915405 1195.337036,1417.543335 1191.192505,1419.821777   C1182.312988,1424.703491 1172.979736,1427.517578 1162.873657,1429.450562   C1151.892822,1431.550903 1141.123779,1430.955566 1130.342773,1430.740601   C1120.799805,1430.550537 1111.026855,1427.746826 1103.508911,1421.892822   C1098.576172,1418.051758 1092.740112,1414.241821 1089.938110,1407.768555   C1089.127075,1405.894897 1086.321167,1404.925171 1084.520264,1403.431763   C1079.291626,1399.096680 1077.485596,1392.809937 1074.835205,1386.900635   C1070.050293,1376.231934 1071.088257,1365.111084 1071.038574,1353.546509   C1074.845337,1354.135132 1077.182861,1353.278809 1077.349487,1348.920654   C1077.422729,1347.001953 1079.548584,1345.246948 1080.311035,1343.252686   C1082.338257,1337.950317 1084.495117,1332.652100 1085.907349,1327.173584   C1087.134766,1322.412354 1089.061279,1319.010254 1093.727295,1316.601440   C1098.740479,1314.013306 1102.905029,1309.831665 1107.770874,1306.893188   C1112.551636,1304.006104 1117.892944,1302.664185 1123.648071,1302.940918   C1129.300049,1303.212524 1134.984619,1303.203979 1140.637573,1302.942261   C1146.210815,1302.684082 1151.782104,1301.399170 1157.316772,1301.600098   C1162.057373,1301.772095 1166.877808,1303.005615 1171.420776,1304.503662   C1176.635254,1306.223145 1181.587524,1308.740723 1186.642334,1310.937866   C1187.530640,1311.324097 1188.460083,1311.717407 1189.206665,1312.312866   C1196.131714,1317.838623 1196.120728,1317.906860 1189.056885,1326.663330  z" />
  <path fill="#10273A" opacity="1.000000" stroke="none" d=" M880.917053,1308.474609   C881.958740,1315.456909 882.697937,1322.149414 883.542603,1328.828491   C883.918884,1331.803833 885.036560,1334.778320 884.892090,1337.707520   C884.571594,1344.209961 883.474365,1350.672729 883.102295,1357.174927   C882.968811,1359.509155 884.021912,1361.907715 884.507324,1364.282349   C884.704712,1365.248169 885.212891,1366.357056 884.933105,1367.181396   C882.409485,1374.616455 884.740662,1381.551025 886.898071,1388.525635   C887.041138,1388.988281 887.158569,1389.611572 886.966736,1390.002319   C883.921387,1396.208130 887.430664,1402.398926 886.952148,1408.568848   C886.536682,1413.926270 885.891846,1419.280273 885.027344,1424.583496   C884.387085,1428.511230 881.381042,1429.065796 877.878967,1429.048584   C867.000427,1428.994629 867.000000,1429.078979 867.000000,1418.413818   C867.000000,1385.084717 867.021362,1351.755737 866.948669,1318.426758   C866.944153,1316.357910 865.878601,1314.290161 865.882019,1312.222778   C865.886414,1309.617920 865.718140,1306.449341 867.082947,1304.600708   C868.054504,1303.284668 871.671936,1302.981567 873.678650,1303.606689   C876.231995,1304.401855 878.351135,1306.591187 880.917053,1308.474609  z" />
  <path fill="#0E253A" opacity="1.000000" stroke="none" d=" M526.137512,1228.768433   C522.472168,1228.719238 521.813171,1230.627930 520.717590,1234.085205   C518.583862,1240.818604 514.809082,1247.055298 511.434998,1253.348145   C510.916382,1254.315308 508.955444,1254.762573 507.587830,1254.974976   C502.944214,1255.695801 498.273468,1256.572510 493.601166,1256.647827   C490.991760,1256.689819 488.311188,1255.384766 485.786743,1254.376221   C485.400085,1254.221680 485.294952,1252.184082 485.722534,1251.362549   C488.280975,1246.448486 491.273499,1241.750122 493.655975,1236.757568   C496.222168,1231.380249 498.189819,1225.720581 500.577179,1220.253418   C503.957214,1212.513062 507.487518,1204.838135 510.944824,1197.131348   C516.965759,1183.709961 522.956787,1170.275024 529.005249,1156.866089   C533.018860,1147.968384 536.942322,1139.021240 541.318787,1130.303467   C542.130188,1128.687134 544.867310,1127.216187 546.786255,1127.122559   C554.265503,1126.757202 561.773865,1126.920654 569.269470,1127.026001   C570.442017,1127.042603 572.187805,1127.425781 572.676331,1128.236938   C575.642822,1133.163208 578.591370,1138.135254 581.047363,1143.327759   C589.146973,1160.452515 596.959534,1177.712769 605.030701,1194.851196   C609.673584,1204.709717 614.754211,1214.362915 619.355774,1224.239868   C623.175415,1232.438721 626.820801,1240.739136 630.031677,1249.189087   C631.028137,1251.811279 629.690430,1254.866943 626.090942,1254.971802   C619.432617,1255.166138 612.761292,1255.127197 606.103699,1254.918823   C605.022644,1254.885010 603.422546,1253.702393 603.016907,1252.674194   C600.180969,1245.485962 597.675598,1238.167603 594.850647,1230.974609   C594.395264,1229.815063 592.875366,1229.073364 591.164978,1227.791870   C590.173340,1227.326172 589.864563,1227.103760 589.555176,1227.103149   C569.409180,1227.059814 549.263062,1227.009399 529.117310,1227.082642   C528.122009,1227.086304 527.130676,1228.181396 526.137512,1228.768433  M573.840088,1204.941650   C575.468811,1204.941650 577.097534,1204.941650 579.882935,1204.941650   C572.509216,1188.412720 565.462646,1172.617310 558.065186,1156.035278   C556.744446,1158.408447 555.792114,1159.851196 555.099365,1161.409302   C551.242859,1170.082397 547.342346,1178.738770 543.672363,1187.491089   C541.279480,1193.197754 539.252869,1199.058228 537.030945,1205.711182   C536.722351,1208.446411 538.211609,1209.035278 540.614258,1209.021240   C552.520264,1208.951538 564.426880,1208.994141 576.333252,1208.960693   C577.036865,1208.958740 577.739624,1208.639526 578.859314,1208.366211   C576.540344,1207.084717 574.766357,1206.104248 573.840088,1204.941650  z" />
  <path fill="#081623" opacity="1.000000" stroke="none" d=" M526.591980,1228.802002   C527.130676,1228.181396 528.122009,1227.086304 529.117310,1227.082642   C549.263062,1227.009399 569.409180,1227.059814 589.555176,1227.103149   C589.864563,1227.103760 590.173340,1227.326172 590.788574,1227.746826   C589.510254,1228.321167 587.926208,1228.827393 586.341064,1228.830933   C566.576294,1228.874878 546.811340,1228.845825 526.591980,1228.802002  z" />
  <path fill="#12273A" opacity="1.000000" stroke="none" d=" M287.035095,1152.641846   C280.339966,1159.045776 282.085602,1168.258911 289.117096,1171.001465   C297.863525,1174.412842 306.570251,1177.980591 315.490906,1180.874146   C323.163361,1183.363037 331.272766,1184.534546 338.887817,1187.161377   C344.939056,1189.248657 351.020294,1191.988647 356.153503,1195.723511   C359.291656,1198.006836 362.176666,1202.599609 362.472229,1206.367310   C362.913513,1211.992554 365.550995,1217.076416 363.635101,1223.648438   C361.239380,1231.866211 358.472931,1239.035034 352.231995,1244.794434   C347.329742,1249.318237 341.917511,1252.493164 334.975494,1253.153687   C324.970978,1254.105469 315.040405,1256.558472 305.051666,1256.719360   C297.264954,1256.844971 289.403076,1254.632202 281.639923,1253.122437   C275.956726,1252.017334 270.228973,1250.780884 264.809601,1248.809692   C261.368500,1247.558105 258.456085,1244.852783 254.743301,1242.432251   C257.645966,1237.043213 260.201447,1232.026978 263.077881,1227.202026   C263.613403,1226.303833 265.713379,1225.454468 266.627380,1225.802002   C275.808838,1229.295166 284.619415,1234.210083 294.073273,1236.428955   C306.390167,1239.319702 319.166962,1239.807861 330.621765,1232.275146   C331.543671,1231.668945 332.139099,1230.566406 332.942963,1229.347168   C334.977264,1227.313232 337.128113,1225.782104 338.848114,1223.864502   C339.548798,1223.083252 339.928467,1221.032959 339.409424,1220.292236   C334.707214,1213.580811 330.248291,1206.468506 321.154266,1204.927856   C320.544189,1204.824585 319.594757,1204.549561 319.460632,1204.139282   C317.581940,1198.395142 312.664551,1198.982056 308.351929,1199.079956   C300.419708,1199.260132 293.022400,1197.588135 285.372406,1195.441040   C276.472992,1192.943115 269.357361,1188.461426 263.197693,1182.086548   C260.520630,1179.316040 259.000275,1176.202393 259.628571,1171.544678   C260.455597,1165.413574 259.147186,1159.017944 259.042236,1152.731323   C258.923248,1145.605469 264.998505,1138.839966 271.603424,1136.454712   C276.911957,1134.537720 281.419922,1130.363159 286.745636,1128.545166   C292.414856,1126.610229 297.777283,1124.331787 304.876801,1126.241943   C312.557465,1128.308594 321.194977,1131.885620 329.608948,1127.344238   C330.145355,1127.054688 330.972778,1126.947510 331.542786,1127.132324   C337.600067,1129.094604 343.949554,1130.529541 349.514984,1133.450439   C351.723572,1134.609619 356.910919,1136.349243 353.426422,1142.300415   C347.853210,1151.818970 345.783875,1153.084595 335.547760,1148.465210   C322.277161,1142.476685 308.424591,1141.723022 294.288055,1144.135864   C289.877838,1144.888916 288.416626,1148.624023 287.035095,1152.641846  z" />
  <path fill="#0E253A" opacity="1.000000" stroke="none" d=" M704.997559,1358.000000   C704.997498,1380.328003 704.909851,1402.156616 705.078430,1423.983276   C705.108521,1427.880981 704.078918,1429.316650 700.042542,1429.082520   C694.396179,1428.755005 688.713379,1428.882080 683.052917,1429.046875   C680.087769,1429.133179 678.942749,1428.207520 678.949158,1425.083984   C679.030212,1385.760376 679.038269,1346.436646 678.941589,1307.113159   C678.933228,1303.702148 680.220398,1302.764771 683.358276,1302.955078   C686.678589,1303.156616 690.020569,1302.996704 693.353088,1303.000732   C701.115051,1303.010254 704.963745,1306.767090 704.984619,1314.510620   C705.023315,1328.840332 704.996826,1343.170166 704.997559,1358.000000  z" />
  <path fill="#F7FAFB" opacity="1.000000" stroke="none" d=" M537.062195,1204.849731   C539.252869,1199.058228 541.279480,1193.197754 543.672363,1187.491089   C547.342346,1178.738770 551.242859,1170.082397 555.099365,1161.409302   C555.792114,1159.851196 556.744446,1158.408447 558.065186,1156.035278   C565.462646,1172.617310 572.509216,1188.412720 579.882935,1204.941650   C577.097534,1204.941650 575.468811,1204.941650 572.954834,1204.947266   C560.400391,1204.918579 548.731323,1204.884155 537.062195,1204.849731  z" />
  <path fill="#081623" opacity="1.000000" stroke="none" d=" M537.046570,1205.280518   C548.731323,1204.884155 560.400391,1204.918579 572.530945,1205.038330   C574.766357,1206.104248 576.540344,1207.084717 578.859314,1208.366211   C577.739624,1208.639526 577.036865,1208.958740 576.333252,1208.960693   C564.426880,1208.994141 552.520264,1208.951538 540.614258,1209.021240   C538.211609,1209.035278 536.722351,1208.446411 537.046570,1205.280518  z" />
</svg>